<svg width="80" height="80" viewBox="0 0 80 80" version="1.1" xmlns="http://www.w3.org/2000/svg" xmlns:xlink="http://www.w3.org/1999/xlink">
<title>Group 9</title>
<desc>Created using Figma</desc>
<g id="Canvas" transform="translate(-26 -2493)">
<g id="Group 9">
<g id="event">
<g id="Group 3">
<g id="Fill 1">
<use xlink:href="#path0_fill" transform="translate(26 2493)" fill="#313131"/>
</g>
</g>
<g id="Fill 4">
<use xlink:href="#path1_fill" transform="translate(86 2543)" fill="#D74B4B"/>
</g>
</g>
</g>
</g>
<defs>
<path id="path0_fill" fill-rule="evenodd" d="M 61.6667 76.6667C 53.3952 76.6667 46.6667 69.9382 46.6667 61.6667C 46.6667 53.3952 53.3952 46.6667 61.6667 46.6667C 69.9381 46.6667 76.6667 53.3952 76.6667 61.6667C 76.6667 69.9382 69.9381 76.6667 61.6667 76.6667ZM 6.66672 70C 4.8275 70 3.33328 68.5042 3.33328 66.6667L 3.33328 26.6667L 70 26.6667L 70 45.3575C 67.4964 44.0727 64.6686 43.3333 61.6667 43.3333C 51.5592 43.3333 43.3333 51.5577 43.3333 61.6667C 43.3333 64.6686 44.0728 67.4964 45.3575 70L 6.66672 70ZM 6.66672 10L 20 10L 20 13.3333C 18.1608 13.3333 16.6667 14.8291 16.6667 16.6667C 16.6667 18.5042 18.1608 20 20 20C 21.8392 20 23.3333 18.5042 23.3333 16.6667L 23.3333 10L 53.3333 10L 53.3333 13.3333C 51.4942 13.3333 50 14.8291 50 16.6667C 50 18.5042 51.4942 20 53.3333 20C 55.1725 20 56.6667 18.5042 56.6667 16.6667L 56.6667 10L 66.6667 10C 68.5059 10 70 11.4958 70 13.3333L 70 23.3333L 3.33328 23.3333L 3.33328 13.3333C 3.33328 11.4958 4.8275 10 6.66672 10ZM 73.3333 47.5363L 73.3333 13.3333C 73.3333 9.65656 70.3419 6.66672 66.6667 6.66672L 56.6667 6.66672L 56.6667 1.66672C 56.6667 0.745469 55.9212 0 55 0C 54.0788 0 53.3333 0.745469 53.3333 1.66672L 53.3333 6.66672L 23.3333 6.66672L 23.3333 1.66672C 23.3333 0.745469 22.588 0 21.6667 0C 20.7455 0 20 0.745469 20 1.66672L 20 6.66672L 6.66672 6.66672C 2.99156 6.66672 0 9.65656 0 13.3333L 0 66.6667C 0 70.3434 2.99156 73.3333 6.66672 73.3333L 47.5359 73.3333C 50.9019 77.4025 55.9869 80 61.6667 80C 71.7741 80 80 71.7758 80 61.6667C 80 55.9864 77.4022 50.9016 73.3333 47.5363Z"/>
<path id="path1_fill" fill-rule="evenodd" d="M 3.33328 10.9766L 3.33328 1.66672C 3.33328 0.745469 2.58797 0 1.66672 0C 0.745469 0 0 0.745469 0 1.66672L 0 11.6667C 0 12.1094 0.175781 12.5325 0.488281 12.845L 5.48828 17.845C 5.81375 18.1706 6.24031 18.3333 6.66672 18.3333C 7.09313 18.3333 7.51953 18.1706 7.845 17.845C 8.49609 17.1941 8.49609 16.1394 7.845 15.4883L 3.33328 10.9766Z"/>
</defs>
</svg>
