<svg width="70" height="72" viewBox="0 0 70 72" version="1.1" xmlns="http://www.w3.org/2000/svg" xmlns:xlink="http://www.w3.org/1999/xlink">
<title>Group 10</title>
<desc>Created using Figma</desc>
<g id="Canvas" transform="translate(-351 -2500)">
<g id="Group 10">
<g id="edit (1)">
<g id="Fill 1">
<use xlink:href="#path0_fill" transform="translate(351 2500)" fill="#0A0B09"/>
</g>
</g>
<g id="Rectangle 5">
<use xlink:href="#path1_fill" transform="translate(362 2555.96)" fill="#D74B4B"/>
</g>
<g id="Rectangle 5 Copy">
<use xlink:href="#path2_fill" transform="translate(362 2543)" fill="#D74B4B"/>
</g>
<g id="Rectangle 5 Copy 2">
<use xlink:href="#path3_fill" transform="translate(362 2528.95)" fill="#D74B4B"/>
</g>
<g id="Fill 3">
<use xlink:href="#path4_fill" transform="translate(372.124 2510.33)" fill="#0A0B09"/>
</g>
<g id="Oval 2">
<use xlink:href="#path5_fill" transform="matrix(0.866025 -0.5 0.5 0.866025 370.32 2557.09)" fill="#D74B4B"/>
</g>
</g>
</g>
<defs>
<path id="path0_fill" fill-rule="evenodd" d="M 14.3617 14.0386C 14.3617 14.2167 14.2169 14.3615 14.039 14.3615L 5.91971 14.3615L 14.3617 5.91943L 14.3617 14.0386ZM 54.8256 39.83C 53.8683 39.83 53.092 40.6062 53.092 41.5636L 53.092 68.0323C 53.092 68.211 52.9474 68.3565 52.7696 68.3565L 3.79164 68.3565C 3.61293 68.3565 3.46745 68.211 3.46745 68.0323L 3.46745 17.8287L 14.039 17.8287C 16.1289 17.8287 17.8288 16.1285 17.8288 14.0386L 17.8288 3.46717L 52.7696 3.46717C 52.9474 3.46717 53.092 3.61265 53.092 3.79136L 53.092 9.26132C 53.092 10.2187 53.8683 10.9949 54.8256 10.9949C 55.7828 10.9949 56.5592 10.2187 56.5592 9.26132L 56.5592 3.79136C 56.5592 1.7009 54.8594 0 52.7696 0L 16.0948 0C 15.6351 0 15.1942 0.182786 14.869 0.507816L 0.507816 14.869C 0.182786 15.1941 0 15.6351 0 16.0948L 0 68.0323C 0 70.1227 1.7009 71.8236 3.79136 71.8236L 52.7695 71.8236C 54.8592 71.8236 56.559 70.1227 56.559 68.0323L 56.559 41.5636C 56.5592 40.6063 55.783 39.83 54.8256 39.83Z"/>
<path id="path1_fill" fill-rule="evenodd" d="M 0 2.53767C 0 1.70924 0.671573 1.03767 1.5 1.03767L 10.8362 1.03767C 12.1014 1.03767 12.7983 2.50759 11.9975 3.48708C 11.7126 3.83555 11.2863 4.03767 10.8362 4.03767L 1.5 4.03767C 0.671574 4.03767 0 3.3661 0 2.53767Z"/>
<path id="path2_fill" fill-rule="evenodd" d="M 0 1.5C 0 0.671573 0.671573 0 1.5 0L 15.5 0C 16.3284 0 17 0.671573 17 1.5C 17 2.32843 16.3284 3 15.5 3L 1.5 3C 0.671573 3 0 2.32843 0 1.5Z"/>
<path id="path3_fill" fill-rule="evenodd" d="M 0 3.55112C 0 2.72269 0.671573 2.05112 1.5 2.05112L 27.3787 2.05112C 28.715 2.05112 29.3843 3.66683 28.4393 4.61178C 28.158 4.89309 27.7765 5.05112 27.3787 5.05112L 1.5 5.05112C 0.671572 5.05112 0 4.37955 0 3.55112Z"/>
<path id="path4_fill" fill-rule="evenodd" d="M 44.5941 9.59882L 42.4098 11.7831L 36.9778 6.35118L 39.1621 4.16687C 40.0977 3.23134 41.6194 3.23162 42.5544 4.16687L 44.5941 6.20655C 45.5295 7.14195 45.5295 8.66371 44.5941 9.59882ZM 5.22363 39.8562L 8.9046 43.5373L 3.80862 44.952L 5.22363 39.8562ZM 12.2319 41.9612L 6.80011 36.5294L 34.5263 8.80322L 39.9582 14.2349L 12.2319 41.9612ZM 45.0062 1.71525C 42.7191 -0.571889 38.9977 -0.571608 36.7103 1.71525L 20.5186 17.907L 17.0514 21.3743L 6.61746 31.8082L 3.15014 35.2754C 2.91068 35.5149 2.75778 35.7773 2.67782 36.0655L 0 45.7093L 1.31808 49.1766C 1.31822 49.1766 1.6981 49.1336 1.75393 49.119C 1.76305 49.1166 12.6954 46.0832 12.6954 46.0832C 12.9835 46.0032 13.2463 45.85 13.4575 45.6386L 47.046 12.0506C 49.3329 9.76342 49.3329 6.04206 47.046 3.75492L 45.0062 1.71525Z"/>
<path id="path5_fill" fill-rule="evenodd" d="M 1.49232 3.64446L 2.10778 0L 0 1.62726L 1.49232 3.64446Z"/>
</defs>
</svg>
