<svg width="80" height="80" viewBox="0 0 80 80" version="1.1" xmlns="http://www.w3.org/2000/svg" xmlns:xlink="http://www.w3.org/1999/xlink">
<title>cloud-computing</title>
<desc>Created using Figma</desc>
<g id="Canvas" transform="translate(84 71)">
<g id="cloud-computing">
<g id="Group 3">
<mask id="mask0_outline" mask-type="alpha">
<g id="Clip 2">
<use xlink:href="#path0_fill" transform="translate(-83.9906 -71)" fill="#FFFFFF"/>
</g>
</mask>
<g id="Fill 1" mask="url(#mask0_outline)">
<use xlink:href="#path1_fill" transform="translate(-84 -71)" fill="#FFFFFF"/>
<mask id="mask1_outline_ins">
<use xlink:href="#path1_fill" fill="white" transform="translate(-84 -71)"/>
</mask>
<g mask="url(#mask1_outline_ins)">
<use xlink:href="#path2_stroke_2x" transform="translate(-84 -71)" fill="#000000" fill-opacity="0.1"/>
</g>
</g>
<g id="Group" mask="url(#mask0_outline)">
<g id="Fill 5">
<use xlink:href="#path3_stroke" transform="translate(-63.598 -42.4505)" fill="#313131"/>
</g>
<g id="arrow-pointing-to-right">
<use xlink:href="#path4_fill" transform="matrix(6.12323e-17 1 -1 6.12323e-17 -40.0463 -35)" fill="#D74B4B"/>
<use xlink:href="#path5_stroke" transform="matrix(6.12323e-17 1 -1 6.12323e-17 -40.0463 -35)" fill="#D74B4B"/>
</g>
</g>
</g>
</g>
</g>
<defs>
<path id="path0_fill" fill-rule="evenodd" d="M 1.19587e-15 79.9992L 1.19587e-15 0L 79.9898 0L 79.9898 39.9996L 79.9898 79.9992L 1.19587e-15 79.9992Z"/>
<path id="path1_fill" fill-rule="evenodd" d="M 39.9995 0C 62.0908 0 79.9992 17.9084 79.9992 39.9995C 79.9992 62.0908 62.0908 79.9992 39.9995 79.9992C 17.9084 79.9992 0 62.0908 0 39.9995C 0 17.9084 17.9084 0 39.9995 0Z"/>
<path id="path2_stroke_2x" d="M 39.9995 1C 61.5385 1 78.9992 18.4607 78.9992 39.9995L 80.9992 39.9995C 80.9992 17.3561 62.6431 -1 39.9995 -1L 39.9995 1ZM 78.9992 39.9995C 78.9992 61.5385 61.5385 78.9992 39.9995 78.9992L 39.9995 80.9992C 62.6431 80.9992 80.9992 62.6431 80.9992 39.9995L 78.9992 39.9995ZM 39.9995 78.9992C 18.4607 78.9992 1 61.5385 1 39.9995L -1 39.9995C -1 62.6431 17.3561 80.9992 39.9995 80.9992L 39.9995 78.9992ZM 1 39.9995C 1 18.4607 18.4607 1 39.9995 1L 39.9995 -1C 17.3562 -1 -1 17.3562 -1 39.9995L 1 39.9995Z"/>
<path id="path3_stroke" d="M 37.4125 16.0748L 36.5281 15.6081L 36.0877 16.4427L 36.8954 16.9307L 37.4125 16.0748ZM 7.97135 22.8571L 8.16729 21.8765L 8.09958 21.8629L 8.03066 21.8588L 7.97135 22.8571ZM 11.4284 6.38594L 11.0921 7.32767L 12.0227 7.66007L 12.3661 6.73343L 11.4284 6.38594ZM 30.2558 7.72906L 29.278 7.93826L 29.5117 9.03106L 30.572 8.67778L 30.2558 7.72906ZM 32.1055 7.44292L 33.1055 7.44292L 33.1055 6.44292L 32.1055 6.44292L 32.1055 7.44292ZM 32.1055 8.46479C 34.8344 8.46479 37.051 10.6815 37.051 13.4103L 39.051 13.4103C 39.051 9.577 35.939 6.46479 32.1055 6.46479L 32.1055 8.46479ZM 37.051 13.4103C 37.051 14.2257 36.8664 14.9671 36.5281 15.6081L 38.2969 16.5415C 38.7953 15.5971 39.051 14.5328 39.051 13.4103L 37.051 13.4103ZM 36.8954 16.9307C 37.6628 17.3944 38.1741 18.2423 38.1741 19.2017L 40.1741 19.2017C 40.1741 17.5185 39.2762 16.0325 37.9296 15.2189L 36.8954 16.9307ZM 38.1741 19.2017C 38.1741 20.6752 36.9702 21.8791 35.4967 21.8791L 35.4967 23.8791C 38.0748 23.8791 40.1741 21.7798 40.1741 19.2017L 38.1741 19.2017ZM 35.4967 21.8791L 8.32365 21.8791L 8.32365 23.8791L 35.4967 23.8791L 35.4967 21.8791ZM 8.32365 21.8791C 8.26535 21.8791 8.2271 21.8789 8.19278 21.8773C 8.1573 21.8757 8.15265 21.8735 8.16729 21.8765L 7.77542 23.8377C 8.00105 23.8828 8.23831 23.8791 8.32365 23.8791L 8.32365 21.8791ZM 8.03066 21.8588C 4.10932 21.6259 1 18.3625 1 14.3793L -1 14.3793C -1 19.4241 2.93714 23.5598 7.91205 23.8553L 8.03066 21.8588ZM 1 14.3793C 1 10.2411 4.36176 6.87948 8.49979 6.87948L 8.49979 4.87948C 3.2572 4.87948 -1 9.13656 -1 14.3793L 1 14.3793ZM 8.49979 6.87948C 9.41757 6.87948 10.2729 7.03507 11.0921 7.32767L 11.7648 5.44421C 10.7344 5.07618 9.65181 4.87948 8.49979 4.87948L 8.49979 6.87948ZM 12.3661 6.73343C 13.6109 3.37451 16.8534 1 20.655 1L 20.655 -1C 16.0008 -1 12.0206 1.91028 10.4908 6.03845L 12.3661 6.73343ZM 20.655 1C 24.8896 1 28.4285 3.96743 29.278 7.93826L 31.2337 7.51986C 30.1894 2.63861 25.8452 -1 20.655 -1L 20.655 1ZM 30.572 8.67778C 31.0519 8.51786 31.5602 8.44292 32.1055 8.44292L 32.1055 6.44292C 31.3739 6.44292 30.649 6.54401 29.9397 6.78035L 30.572 8.67778ZM 31.1055 7.44292L 31.1055 7.46479L 33.1055 7.46479L 33.1055 7.44292L 31.1055 7.44292Z"/>
<path id="path4_fill" fill-rule="evenodd" d="M 9.82116 3.09859L 6.85819 0.135625C 6.67731 -0.0452083 6.38417 -0.0452083 6.20352 0.135625C 6.02269 0.316458 6.02269 0.609421 6.20352 0.790301L 8.37602 2.96294L 0.462963 2.96294C 0.207269 2.96294 0 3.17021 0 3.4259C 0 3.68164 0.207269 3.88887 0.462963 3.88887L 8.37602 3.88887L 6.20352 6.06155C 6.02269 6.24238 6.02269 6.53535 6.20352 6.71623C 6.29393 6.80664 6.41241 6.85183 6.53083 6.85183C 6.64931 6.85183 6.76796 6.80664 6.85819 6.71623L 9.82116 3.75326C 10.002 3.57238 10.002 3.27942 9.82116 3.09859Z"/>
<path id="path5_stroke" d="M 9.82116 3.09859L 10.1747 2.74503L 9.82116 3.09859ZM 6.85819 0.135625L 7.21175 -0.217928L 7.2117 -0.217974L 6.85819 0.135625ZM 6.20352 0.135625L 6.55707 0.489178L 6.55725 0.488997L 6.20352 0.135625ZM 6.20352 0.790301L 5.84992 1.14381L 5.84995 1.14384L 6.20352 0.790301ZM 8.37602 2.96294L 8.37602 3.46294L 9.58307 3.46294L 8.72958 2.6094L 8.37602 2.96294ZM 8.37602 3.88887L 8.72959 4.2424L 9.58305 3.38887L 8.37602 3.38887L 8.37602 3.88887ZM 6.20352 6.06155L 6.55707 6.4151L 6.55709 6.41509L 6.20352 6.06155ZM 6.20352 6.71623L 5.84992 7.06974L 5.84997 7.06978L 6.20352 6.71623ZM 6.85819 6.71623L 6.50464 6.36267L 6.50428 6.36304L 6.85819 6.71623ZM 9.82116 3.75326L 10.1747 4.10682L 10.1748 4.10677L 9.82116 3.75326ZM 10.1747 2.74503L 7.21175 -0.217928L 6.50464 0.489178L 9.4676 3.45214L 10.1747 2.74503ZM 7.2117 -0.217974C 6.8357 -0.593884 6.22586 -0.594209 5.84978 -0.217747L 6.55725 0.488997C 6.54247 0.503793 6.51893 0.503467 6.50469 0.489224L 7.2117 -0.217974ZM 5.84997 -0.217928C 5.47384 0.158192 5.47391 0.767703 5.84992 1.14381L 6.55712 0.436793C 6.57146 0.45114 6.57153 0.474725 6.55707 0.489178L 5.84997 -0.217928ZM 5.84995 1.14384L 8.02245 3.31648L 8.72958 2.6094L 6.55708 0.436759L 5.84995 1.14384ZM 8.37602 2.46294L 0.462963 2.46294L 0.462963 3.46294L 8.37602 3.46294L 8.37602 2.46294ZM 0.462963 2.46294C -0.0688741 2.46294 -0.5 2.89407 -0.5 3.4259L 0.5 3.4259C 0.5 3.44635 0.483411 3.46294 0.462963 3.46294L 0.462963 2.46294ZM -0.5 3.4259C -0.5 3.95782 -0.0688412 4.38887 0.462963 4.38887L 0.462963 3.38887C 0.483378 3.38887 0.5 3.40547 0.5 3.4259L -0.5 3.4259ZM 0.462963 4.38887L 8.37602 4.38887L 8.37602 3.38887L 0.462963 3.38887L 0.462963 4.38887ZM 8.02245 3.53533L 5.84995 5.70801L 6.55709 6.41509L 8.72959 4.2424L 8.02245 3.53533ZM 5.84997 5.708C 5.47384 6.08412 5.47391 6.69363 5.84992 7.06974L 6.55712 6.36272C 6.57146 6.37707 6.57153 6.40065 6.55707 6.4151L 5.84997 5.708ZM 5.84997 7.06978C 6.0379 7.25772 6.2852 7.35183 6.53083 7.35183L 6.53083 6.35183C 6.5351 6.35183 6.53975 6.35263 6.54458 6.35459C 6.54975 6.35668 6.55412 6.35972 6.55707 6.36267L 5.84997 7.06978ZM 6.53083 7.35183C 6.77618 7.35183 7.02398 7.25793 7.21211 7.06942L 6.50428 6.36304C 6.50755 6.35976 6.51213 6.35664 6.51728 6.35455C 6.52208 6.35261 6.52665 6.35183 6.53083 6.35183L 6.53083 7.35183ZM 7.21175 7.06978L 10.1747 4.10682L 9.4676 3.39971L 6.50464 6.36267L 7.21175 7.06978ZM 10.1748 4.10677C 10.5508 3.73067 10.5508 3.12116 10.1747 2.74503L 9.4676 3.45214C 9.45315 3.43769 9.45322 3.4141 9.46756 3.39976L 10.1748 4.10677Z"/>
</defs>
</svg>
