<svg width="80" height="80" viewBox="0 0 80 80" version="1.1" xmlns="http://www.w3.org/2000/svg" xmlns:xlink="http://www.w3.org/1999/xlink">
<title>Group 7</title>
<desc>Created using Figma</desc>
<g id="Canvas" transform="translate(84 -808)">
<g id="Group 7">
<g id="cloud-computing copy 2">
<g id="Group 3">
<mask id="mask0_outline" mask-type="alpha">
<g id="Clip 2">
<use xlink:href="#path0_fill" transform="translate(-83.9906 808)" fill="#FFFFFF"/>
</g>
</mask>
<g id="Fill 1" mask="url(#mask0_outline)">
<use xlink:href="#path1_fill" transform="translate(-84 808)" fill="#FFFFFF"/>
<mask id="mask1_outline_ins">
<use xlink:href="#path1_fill" fill="white" transform="translate(-84 808)"/>
</mask>
<g mask="url(#mask1_outline_ins)">
<use xlink:href="#path2_stroke_2x" transform="translate(-84 808)" fill="#000000" fill-opacity="0.1"/>
</g>
</g>
</g>
</g>
<g id="settings (2)">
<g id="Fill 1">
<use xlink:href="#path3_fill" transform="translate(-64 828.004)" fill="#313131"/>
</g>
<g id="Fill 3">
<use xlink:href="#path4_fill" transform="translate(-52.6288 839.367)" fill="#D74B4B"/>
</g>
</g>
</g>
</g>
<defs>
<path id="path0_fill" fill-rule="evenodd" d="M 1.19587e-15 79.9992L 1.19587e-15 0L 79.9898 0L 79.9898 39.9996L 79.9898 79.9992L 1.19587e-15 79.9992Z"/>
<path id="path1_fill" fill-rule="evenodd" d="M 39.9995 0C 62.0908 0 79.9992 17.9084 79.9992 39.9995C 79.9992 62.0908 62.0908 79.9992 39.9995 79.9992C 17.9084 79.9992 0 62.0908 0 39.9995C 0 17.9084 17.9084 0 39.9995 0Z"/>
<path id="path2_stroke_2x" d="M 39.9995 1C 61.5385 1 78.9992 18.4607 78.9992 39.9995L 80.9992 39.9995C 80.9992 17.3561 62.6431 -1 39.9995 -1L 39.9995 1ZM 78.9992 39.9995C 78.9992 61.5385 61.5385 78.9992 39.9995 78.9992L 39.9995 80.9992C 62.6431 80.9992 80.9992 62.6431 80.9992 39.9995L 78.9992 39.9995ZM 39.9995 78.9992C 18.4607 78.9992 1 61.5385 1 39.9995L -1 39.9995C -1 62.6431 17.3561 80.9992 39.9995 80.9992L 39.9995 78.9992ZM 1 39.9995C 1 18.4607 18.4607 1 39.9995 1L 39.9995 -1C 17.3562 -1 -1 17.3562 -1 39.9995L 1 39.9995Z"/>
<path id="path3_fill" fill-rule="evenodd" d="M 37.9487 15.7996L 35.1415 15.3231C 34.8491 14.3791 34.4729 13.4685 34.0136 12.5996L 35.6679 10.2851C 36.3695 9.29911 36.261 7.95405 35.4006 7.10183L 32.9108 4.61201C 32.4429 4.14413 31.8244 3.88501 31.1643 3.88501C 30.6466 3.88501 30.1534 4.04376 29.7357 4.34486L 27.4131 5.99906C 26.5107 5.52261 25.5667 5.13013 24.5891 4.8376L 24.1213 2.06392C 23.9205 0.86893 22.8928 0 21.6817 0L 18.1642 0C 16.9525 0 15.9248 0.86893 15.7242 2.06392L 15.2399 4.90454C 14.304 5.19708 13.393 5.58131 12.5245 6.04929L 10.2268 4.39457C 9.80909 4.09389 9.30768 3.93525 8.78956 3.93525C 8.1295 3.93525 7.50287 4.19426 7.04345 4.66225L 4.54517 7.15196C 3.69285 8.00428 3.57577 9.34935 4.27791 10.3354L 5.94893 12.6831C 5.48919 13.5603 5.12157 14.4709 4.8376 15.4154L 2.06392 15.8828C 0.86893 16.0836 0 17.1112 0 18.3228L 0 21.8403C 0 23.0516 0.86893 24.0793 2.06392 24.2799L 4.90454 24.7646C 5.19708 25.7001 5.58131 26.6111 6.04929 27.48L 4.40313 29.7691C 3.70141 30.7551 3.80992 32.1002 4.67039 32.9525L 7.16021 35.4422C 7.62809 35.9102 8.24658 36.1692 8.90663 36.1692C 9.42433 36.1692 9.9176 36.0105 10.3354 35.7099L 12.6831 34.0389C 13.5269 34.4815 14.4125 34.8409 15.3231 35.1248L 15.791 37.932C 15.9917 39.127 17.0194 39.9959 18.2307 39.9959L 21.7567 39.9959C 22.9684 39.9959 23.996 39.127 24.1963 37.932L 24.6724 35.1248C 25.6168 34.8324 26.5274 34.4566 27.3963 33.9969L 29.7107 35.6511C 30.1285 35.9517 30.6299 36.1109 31.1476 36.1109C 31.8077 36.1109 32.4261 35.8518 32.8941 35.3839L 35.3839 32.8941C 36.2361 32.0419 36.3528 30.6968 35.6511 29.7107L 33.9969 27.3878C 34.4566 26.5107 34.8409 25.6001 35.1248 24.6642L 37.932 24.1963C 39.127 23.996 39.9959 22.9684 39.9959 21.7567L 39.9959 18.2393C 40.0126 17.0276 39.1437 15.9999 37.9487 15.7996ZM 37.7567 21.7566C 37.7567 21.8651 37.6816 21.9569 37.5731 21.9737L 34.0637 22.5587C 33.6211 22.6338 33.2699 22.9598 33.1614 23.3861C 32.8439 24.6141 32.3593 25.7922 31.7078 26.8868C 31.4821 27.2711 31.4989 27.7472 31.7575 28.1148L 33.8214 31.0223C 33.8797 31.106 33.8715 31.2312 33.7966 31.3067L 31.3067 33.7965C 31.2479 33.8548 31.1897 33.863 31.1476 33.863C 31.0979 33.863 31.0558 33.8462 31.0224 33.8214L 28.1233 31.7575C 27.764 31.4989 27.2793 31.4821 26.895 31.7078C 25.8004 32.3592 24.6227 32.8438 23.3943 33.1613C 22.9598 33.2698 22.6338 33.6292 22.5669 34.0637L 21.9737 37.573C 21.957 37.6815 21.8652 37.7566 21.7567 37.7566L 18.2393 37.7566C 18.1308 37.7566 18.0385 37.6815 18.0218 37.573L 17.4372 34.0637C 17.3617 33.6211 17.0361 33.2698 16.6098 33.1613C 15.4154 32.8521 14.262 32.376 13.1841 31.7575C 13.0088 31.6575 12.8085 31.6074 12.6163 31.6074C 12.3907 31.6074 12.1564 31.6742 11.9644 31.8163L 9.04011 33.8965C 8.99843 33.9218 8.95687 33.9385 8.91478 33.9385C 8.88136 33.9385 8.81441 33.9299 8.75614 33.8715L 6.26632 31.3817C 6.19123 31.3067 6.18266 31.1896 6.24146 31.0978L 8.29671 28.2151C 8.55582 27.8476 8.57212 27.3629 8.34695 26.9786C 7.69504 25.8926 7.19363 24.7144 6.87624 23.486C 6.75917 23.0601 6.40825 22.7342 5.97379 22.6591L 2.43958 22.0573C 2.33107 22.0406 2.25608 21.9488 2.25608 21.8403L 2.25608 18.3228C 2.25608 18.2139 2.33107 18.1222 2.43958 18.1054L 5.92366 17.5208C 6.36668 17.4453 6.72564 17.1198 6.83457 16.6853C 7.14339 15.4569 7.61995 14.2706 8.26329 13.176C 8.48888 12.7916 8.4636 12.3156 8.2046 11.9561L 6.12439 9.03183C 6.06559 8.94828 6.07415 8.82296 6.14924 8.74797L 8.63906 6.25815C 8.69776 6.19935 8.75614 6.19121 8.7977 6.19121C 8.84794 6.19121 8.88992 6.20792 8.92334 6.23288L 11.8056 8.28812C 12.1733 8.54724 12.6579 8.56395 13.0422 8.33836C 14.1286 7.68687 15.3064 7.18546 16.5347 6.86807C 16.9606 6.751 17.2867 6.40008 17.3617 5.96562L 17.9634 2.43141C 17.9802 2.32248 18.072 2.2475 18.1805 2.2475L 21.6984 2.2475C 21.8069 2.2475 21.8987 2.32248 21.9154 2.43141L 22.5004 5.91549C 22.5755 6.3581 22.9014 6.71747 23.3359 6.82598C 24.5974 7.14337 25.8004 7.63664 26.9203 8.29669C 27.3045 8.52238 27.7807 8.50557 28.1483 8.24656L 31.0309 6.17449C 31.0726 6.14922 31.1146 6.13251 31.1561 6.13251C 31.1897 6.13251 31.2565 6.14107 31.3149 6.19935L 33.8047 8.68917C 33.8797 8.76468 33.8883 8.88134 33.83 8.97355L 31.7661 11.8726C 31.507 12.2319 31.4903 12.7166 31.7159 13.1009C 32.3678 14.1955 32.8521 15.3732 33.1699 16.6017C 33.2784 17.0361 33.6374 17.3616 34.0719 17.4286L 37.5812 18.0218C 37.6897 18.0385 37.7652 18.1307 37.7652 18.2392L 37.7652 21.7566L 37.7567 21.7566Z"/>
<path id="path4_fill" fill-rule="evenodd" d="M 8.63091 0C 3.86872 0 0 3.8683 0 8.63081C 0 13.393 3.86872 17.2613 8.63091 17.2613C 13.3934 17.2613 17.2617 13.393 17.2617 8.63081C 17.2617 3.8683 13.3934 0 8.63091 0ZM 8.63091 15.0056C 5.11342 15.0056 2.25598 12.1483 2.25598 8.6308C 2.25598 5.11341 5.11342 2.25555 8.63091 2.25555C 12.1483 2.25555 15.0057 5.11341 15.0057 8.6308C 15.0057 12.1483 12.1483 15.0056 8.63091 15.0056Z"/>
</defs>
</svg>
