<svg width="80" height="80" viewBox="0 0 80 80" version="1.1" xmlns="http://www.w3.org/2000/svg" xmlns:xlink="http://www.w3.org/1999/xlink">
<title>Group 8</title>
<desc>Created using Figma</desc>
<g id="Canvas" transform="translate(84 -321)">
<g id="Group 8">
<g id="cloud-computing copy 3">
<g id="Group 3">
<mask id="mask0_outline" mask-type="alpha">
<g id="Clip 2">
<use xlink:href="#path0_fill" transform="translate(-83.9906 321)" fill="#FFFFFF"/>
</g>
</mask>
<g id="Fill 1" mask="url(#mask0_outline)">
<use xlink:href="#path1_fill" transform="translate(-84 321)" fill="#FFFFFF"/>
<mask id="mask1_outline_ins">
<use xlink:href="#path1_fill" fill="white" transform="translate(-84 321)"/>
</mask>
<g mask="url(#mask1_outline_ins)">
<use xlink:href="#path2_stroke_2x" transform="translate(-84 321)" fill="#000000" fill-opacity="0.1"/>
</g>
</g>
</g>
</g>
<g id="network (1)">
<g id="Group 2">
<g id="Fill 1">
<use xlink:href="#path3_fill" transform="translate(-65.0001 341.446)" fill="#313131"/>
</g>
<g id="Path">
<mask id="mask2_outline_out">
<rect id="mask2_outline_inv" fill="white" x="-3" y="-3" width="19" height="19" transform="translate(-49.8645 356.203)"/>
<use xlink:href="#path4_fill" fill="black" transform="translate(-49.8645 356.203)"/>
</mask>
<g mask="url(#mask2_outline_out)">
<use xlink:href="#path5_stroke_2x" transform="translate(-49.8645 356.203)" fill="#D74B4B"/>
</g>
</g>
</g>
</g>
</g>
</g>
<defs>
<path id="path0_fill" fill-rule="evenodd" d="M 1.19587e-15 79.9992L 1.19587e-15 0L 79.9898 0L 79.9898 39.9996L 79.9898 79.9992L 1.19587e-15 79.9992Z"/>
<path id="path1_fill" fill-rule="evenodd" d="M 39.9995 0C 62.0908 0 79.9992 17.9084 79.9992 39.9995C 79.9992 62.0908 62.0908 79.9992 39.9995 79.9992C 17.9084 79.9992 0 62.0908 0 39.9995C 0 17.9084 17.9084 0 39.9995 0Z"/>
<path id="path2_stroke_2x" d="M 39.9995 1C 61.5385 1 78.9992 18.4607 78.9992 39.9995L 80.9992 39.9995C 80.9992 17.3561 62.6431 -1 39.9995 -1L 39.9995 1ZM 78.9992 39.9995C 78.9992 61.5385 61.5385 78.9992 39.9995 78.9992L 39.9995 80.9992C 62.6431 80.9992 80.9992 62.6431 80.9992 39.9995L 78.9992 39.9995ZM 39.9995 78.9992C 18.4607 78.9992 1 61.5385 1 39.9995L -1 39.9995C -1 62.6431 17.3561 80.9992 39.9995 80.9992L 39.9995 78.9992ZM 1 39.9995C 1 18.4607 18.4607 1 39.9995 1L 39.9995 -1C 17.3562 -1 -1 17.3562 -1 39.9995L 1 39.9995Z"/>
<path id="path3_fill" fill-rule="evenodd" d="M 41.4921 10.7371C 40.9536 9.71172 40.0565 8.96256 38.9662 8.62525C 37.8748 8.28888 36.7202 8.40611 35.7155 8.9543C 34.7108 9.50343 33.9753 10.4184 33.6448 11.5315C 33.4253 12.2722 33.4071 13.0417 33.5752 13.776L 28.9676 16.2923C 27.5664 14.2855 25.3808 12.8879 22.8711 12.5652L 22.8711 8.55424C 24.687 8.05488 26.0286 6.36055 26.0286 4.35272C 26.0286 1.95239 24.1143 0 21.7607 0C 19.4072 0 17.4929 1.95239 17.4929 4.35272C 17.4929 6.36149 18.8336 8.05488 20.6504 8.55519L 20.6504 12.5652C 17.4441 12.9763 14.7672 15.1434 13.5781 18.0909L 8.53499 16.7051C 8.53591 15.9515 8.34719 15.2061 7.96857 14.5353C 7.40031 13.5271 6.48072 12.8058 5.38027 12.5027C 3.10721 11.8788 0.760831 13.2563 0.149315 15.5736C -0.148116 16.6959 0.00198734 17.869 0.571178 18.8769C 1.13944 19.8841 2.05903 20.6064 3.15948 20.9085C 3.52907 21.01 3.90398 21.0597 4.27612 21.0597C 5.01438 21.0597 5.74154 20.8635 6.39839 20.4783C 7.05708 20.0922 7.58649 19.5449 7.95678 18.8918L 13.0009 20.2776C 12.9467 20.6819 12.916 21.0939 12.916 21.5122C 12.916 23.5926 13.6117 25.5082 14.7753 27.036L 11.0775 30.8073C 9.44671 29.8518 7.3263 30.0794 5.93397 31.4984C 4.26988 33.1956 4.26988 35.9571 5.93397 37.6545C 6.76613 38.5029 7.85848 38.9268 8.95153 38.9268C 10.0448 38.9268 11.1369 38.5029 11.9691 37.6545C 13.3614 36.2345 13.5844 34.0719 12.6477 32.4087L 16.3445 28.6374C 17.8426 29.8242 19.7217 30.5337 21.7607 30.5337C 23.7997 30.5337 25.6789 29.8242 27.176 28.6374L 30.8738 32.4087C 29.9371 34.0719 30.1601 36.2345 31.5524 37.6545C 32.3846 38.5029 33.4767 38.9268 34.57 38.9268C 35.663 38.9268 36.7554 38.502 37.5875 37.6545C 39.2516 35.9571 39.2516 33.1956 37.5875 31.4984C 36.1952 30.0784 34.0748 29.8518 32.444 30.8073L 28.7462 27.036C 29.9107 25.5082 30.6055 23.5926 30.6055 21.5122C 30.6055 20.3762 30.3969 19.2897 30.0192 18.2872L 34.6241 15.7727C 35.1301 16.3228 35.7678 16.7337 36.4943 16.9575C 36.9027 17.084 37.3209 17.1465 37.7356 17.1465C 38.4294 17.1465 39.1161 16.9724 39.7449 16.6287C 40.7496 16.0796 41.4849 15.1646 41.8147 14.0524C 42.1455 12.9393 42.0307 11.7618 41.4921 10.7371ZM 38.6961 14.632C 38.2145 14.8954 37.6606 14.9518 37.1365 14.7895C 36.6136 14.6282 36.1834 14.2689 35.9251 13.7769C 35.6667 13.2858 35.6126 12.7201 35.7706 12.1866C 35.9288 11.653 36.281 11.2136 36.7635 10.951C 37.0653 10.7859 37.3951 10.7022 37.7275 10.7022C 37.9261 10.7022 38.1269 10.7326 38.3228 10.7925C 38.8459 10.9536 39.2768 11.3141 39.5345 11.8052C 39.7928 12.2972 39.8479 12.8619 39.6897 13.3955C 39.5317 13.9297 39.1785 14.3685 38.6961 14.632ZM 28.385 21.5122C 28.385 25.2374 25.4134 28.269 21.7607 28.269C 18.1081 28.269 15.1356 25.2374 15.1356 21.5122C 15.1356 17.7869 18.1081 14.7563 21.7607 14.7563C 25.4134 14.7563 28.385 17.7869 28.385 21.5122ZM 19.7134 4.35273C 19.7134 3.20092 20.6314 2.26471 21.7607 2.26471C 22.8892 2.26471 23.8081 3.20092 23.8081 4.35273C 23.8081 5.5036 22.8892 6.44052 21.7607 6.44052C 20.6314 6.44052 19.7134 5.5036 19.7134 4.35273ZM 3.73677 18.7221C 3.20921 18.5766 2.76838 18.231 2.49546 17.7472C 2.22255 17.2635 2.15039 16.7014 2.29309 16.1624C 2.58682 15.0502 3.71248 14.3897 4.80206 14.689C 5.33054 14.8346 5.77137 15.1811 6.04429 15.6639C 6.31697 16.1477 6.38844 16.7108 6.24666 17.2488C 5.95293 18.361 4.82727 19.0215 3.73677 18.7221ZM 10.3989 36.0522C 9.60121 36.8666 8.30208 36.8666 7.50415 36.0522C 6.70553 35.2384 6.70553 33.9134 7.50415 33.0999C 7.90266 32.6925 8.42767 32.4889 8.95153 32.4889C 9.47562 32.4889 10.0004 32.6925 10.3989 33.0999C 11.1975 33.9134 11.1975 35.2384 10.3989 36.0522ZM 36.0173 33.0999C 36.816 33.9134 36.816 35.2384 36.0173 36.0522C 35.2194 36.8666 33.9203 36.8666 33.1217 36.0522C 32.324 35.2384 32.324 33.9134 33.1217 33.0999C 33.5211 32.6925 34.0449 32.4889 34.57 32.4889C 35.0938 32.4889 35.6179 32.6925 36.0173 33.0999Z"/>
<path id="path4_fill" fill-rule="evenodd" d="M 13.2494 6.75588C 13.2494 10.4812 10.2778 13.5127 6.62514 13.5127C 2.97247 13.5127 0 10.4812 0 6.75588C 0 3.03061 2.97247 0 6.62514 0C 10.2778 0 13.2494 3.03061 13.2494 6.75588Z"/>
<path id="path5_stroke_2x" d="M 10.9494 6.75588C 10.9494 9.25422 8.96467 11.2127 6.62514 11.2127L 6.62514 15.8127C 11.5909 15.8127 15.5494 11.7081 15.5494 6.75588L 10.9494 6.75588ZM 6.62514 11.2127C 4.28519 11.2127 2.3 9.25379 2.3 6.75588L -2.3 6.75588C -2.3 11.7085 1.65974 15.8127 6.62514 15.8127L 6.62514 11.2127ZM 2.3 6.75588C 2.3 4.2584 4.28477 2.3 6.62514 2.3L 6.62514 -2.3C 1.66016 -2.3 -2.3 1.80282 -2.3 6.75588L 2.3 6.75588ZM 6.62514 2.3C 8.96509 2.3 10.9494 4.25797 10.9494 6.75588L 15.5494 6.75588C 15.5494 1.80324 11.5905 -2.3 6.62514 -2.3L 6.62514 2.3Z"/>
</defs>
</svg>
