<svg width="12" height="12" viewBox="0 0 12 12" version="1.1" xmlns="http://www.w3.org/2000/svg" xmlns:xlink="http://www.w3.org/1999/xlink">
<title>Fill 1</title>
<desc>Created using Figma</desc>
<g id="Canvas" transform="translate(-3571 946)">
<g id="Fill 1">
<use xlink:href="#path0_fill" transform="translate(3571 -946)" fill="#FFFFFF"/>
</g>
</g>
<defs>
<path id="path0_fill" fill-rule="evenodd" d="M 11.8171 10.9294L 8.85956 7.96006C 9.62022 7.08667 10.037 5.98815 10.037 4.8446C 10.037 2.17334 7.7858 0 5.0178 0C 2.25116 0 0 2.17334 0 4.8446C 0 7.51665 2.25116 9.69 5.0178 9.69C 6.05665 9.69 7.0475 9.38772 7.89326 8.81266L 10.8743 11.8057C 10.9989 11.9313 11.1661 12 11.3464 12C 11.5157 12 11.6764 11.9373 11.7991 11.8233C 12.0601 11.5816 12.0675 11.1814 11.8171 10.9294ZM 5.01772 1.26416C 7.06324 1.26416 8.72748 2.87087 8.72748 4.84462C 8.72748 6.81943 7.06324 8.42588 5.01772 8.42588C 2.97329 8.42588 1.30933 6.81943 1.30933 4.84462C 1.30933 2.87087 2.97329 1.26416 5.01772 1.26416Z"/>
</defs>
</svg>
