<svg width="80" height="80" viewBox="0 0 80 80" version="1.1" xmlns="http://www.w3.org/2000/svg" xmlns:xlink="http://www.w3.org/1999/xlink">
<title>Group 11</title>
<desc>Created using Figma</desc>
<g id="Canvas" transform="translate(-665 -2493)">
<g id="Group 11">
<g id="gem">
<g id="Group 4">
<mask id="mask0_outline" mask-type="alpha">
<g id="Clip 2">
<use xlink:href="#path0_fill" transform="translate(665.009 2493.16)" fill="#FFFFFF"/>
</g>
</mask>
<g id="Fill 1" mask="url(#mask0_outline)">
<use xlink:href="#path1_fill" transform="translate(721.316 2493.16)" fill="#D74B4B"/>
<mask id="mask1_outline_ins">
<use xlink:href="#path1_fill" fill="white" transform="translate(721.316 2493.16)"/>
</mask>
<g mask="url(#mask1_outline_ins)">
<use xlink:href="#path2_stroke_2x" transform="translate(721.316 2493.16)" fill="#FFFFFF"/>
</g>
</g>
<g id="Fill 3" mask="url(#mask0_outline)">
<use xlink:href="#path3_fill" transform="translate(665 2549.61)" fill="#D74B4B"/>
<mask id="mask2_outline_ins">
<use xlink:href="#path3_fill" fill="white" transform="translate(665 2549.61)"/>
</mask>
<g mask="url(#mask2_outline_ins)">
<use xlink:href="#path4_stroke_2x" transform="translate(665 2549.61)" fill="#FFFFFF"/>
</g>
</g>
</g>
<g id="Fill 5">
<use xlink:href="#path5_fill" transform="translate(674.51 2502.67)" fill="#0A0B09"/>
<mask id="mask3_outline_ins">
<use xlink:href="#path5_fill" fill="white" transform="translate(674.51 2502.67)"/>
</mask>
<g mask="url(#mask3_outline_ins)">
<use xlink:href="#path6_stroke_2x" transform="translate(674.51 2502.67)" fill="#FFFFFF"/>
</g>
</g>
</g>
</g>
</g>
<defs>
<path id="path0_fill" fill-rule="evenodd" d="M 3.25261e-18 0L 0 79.8438L 79.9904 79.8438L 79.9904 1.77636e-14L 0 4.44089e-14L 3.25261e-18 0Z"/>
<path id="path1_fill" fill-rule="evenodd" d="M 14.0626 12.7207C 13.6099 12.9472 13.2427 13.3141 13.0165 13.7669L 11.9894 15.8205L 10.9626 13.7669C 10.7323 13.3064 10.3568 12.935 9.89414 12.7099L 7.76648 11.6741L 9.86179 10.6935C 10.339 10.4702 10.7268 10.0922 10.9626 9.62098L 11.9894 7.56738L 13.0165 9.62098C 13.2427 10.0736 13.6099 10.4407 14.0626 10.6671L 16.116 11.6939L 14.0626 12.7207ZM 22.3929 9.60168L 16.8524 6.83137L 14.0818 1.29059C 13.2202 -0.432226 10.7566 -0.428164 9.89724 1.29059L 7.14177 6.8009L 1.34521 9.51387C -0.432759 10.3461 -0.453071 12.8761 1.31287 13.7359L 7.13271 16.5692L 9.89724 22.0975C 10.7586 23.8203 13.2222 23.8162 14.0818 22.0975L 16.8524 16.5567L 22.3929 13.7862C 24.1158 12.925 24.1119 10.4612 22.3929 9.60168Z"/>
<path id="path2_stroke_2x" d="M 14.0626 12.7207L 13.7495 12.0946L 13.7493 12.0947L 14.0626 12.7207ZM 13.0165 13.7669L 13.6425 14.08L 13.6427 14.0798L 13.0165 13.7669ZM 11.9894 15.8205L 11.3634 16.1336L 11.9894 17.3856L 12.6155 16.1336L 11.9894 15.8205ZM 10.9626 13.7669L 11.5887 13.4538L 11.5886 13.4538L 10.9626 13.7669ZM 9.89414 12.7099L 9.58774 13.3393L 9.58782 13.3393L 9.89414 12.7099ZM 7.76648 11.6741L 7.46976 11.0401L 6.14167 11.6617L 7.46008 12.3035L 7.76648 11.6741ZM 9.86179 10.6935L 9.56512 10.0595L 9.56507 10.0595L 9.86179 10.6935ZM 10.9626 9.62098L 11.5886 9.93419L 11.5887 9.93404L 10.9626 9.62098ZM 11.9894 7.56738L 12.6155 7.25428L 11.9894 6.00233L 11.3634 7.25431L 11.9894 7.56738ZM 13.0165 9.62098L 13.6426 9.30801L 13.6425 9.30787L 13.0165 9.62098ZM 14.0626 10.6671L 13.7494 11.2931L 13.7495 11.2931L 14.0626 10.6671ZM 16.116 11.6939L 16.4291 12.32L 17.6812 11.694L 16.4291 11.0679L 16.116 11.6939ZM 16.8524 6.83137L 16.2263 7.14444L 16.3307 7.35312L 16.5393 7.45746L 16.8524 6.83137ZM 14.0818 1.29059L 14.7079 0.977516L 14.7078 0.977491L 14.0818 1.29059ZM 9.89724 1.29059L 10.5233 1.60366L 10.5233 1.60364L 9.89724 1.29059ZM 7.14177 6.8009L 7.4385 7.4349L 7.65898 7.3317L 7.76786 7.11398L 7.14177 6.8009ZM 1.34521 9.51387L 1.04848 8.87987L 1.04847 8.87988L 1.34521 9.51387ZM 1.31287 13.7359L 1.00643 14.3653L 1.00646 14.3653L 1.31287 13.7359ZM 7.13271 16.5692L 7.75879 16.2561L 7.65259 16.0437L 7.43911 15.9398L 7.13271 16.5692ZM 9.89724 22.0975L 10.5233 21.7844L 10.5233 21.7844L 9.89724 22.0975ZM 14.0818 22.0975L 14.7078 22.4106L 14.7079 22.4105L 14.0818 22.0975ZM 16.8524 16.5567L 16.5393 15.9306L 16.3307 16.0349L 16.2263 16.2436L 16.8524 16.5567ZM 22.3929 13.7862L 22.0799 13.1601L 22.0798 13.1601L 22.3929 13.7862ZM 13.7493 12.0947C 13.1615 12.3889 12.6844 12.8654 12.3903 13.454L 13.6427 14.0798C 13.8011 13.7628 14.0583 13.5056 14.3759 13.3466L 13.7493 12.0947ZM 12.3904 13.4538L 11.3634 15.5074L 12.6155 16.1336L 13.6425 14.08L 12.3904 13.4538ZM 12.6155 15.5074L 11.5887 13.4538L 10.3365 14.08L 11.3634 16.1336L 12.6155 15.5074ZM 11.5886 13.4538C 11.2894 12.8556 10.8016 12.373 10.2004 12.0805L 9.58782 13.3393C 9.91197 13.4971 10.1751 13.7573 10.3365 14.08L 11.5886 13.4538ZM 10.2005 12.0805L 8.07287 11.0447L 7.46008 12.3035L 9.58774 13.3393L 10.2005 12.0805ZM 8.0632 12.3081L 10.1585 11.3275L 9.56507 10.0595L 7.46976 11.0401L 8.0632 12.3081ZM 10.1585 11.3275C 10.7786 11.0373 11.2823 10.5463 11.5886 9.93419L 10.3366 9.30776C 10.1712 9.63819 9.8994 9.90304 9.56512 10.0595L 10.1585 11.3275ZM 11.5887 9.93404L 12.6155 7.88045L 11.3634 7.25431L 10.3365 9.30791L 11.5887 9.93404ZM 11.3634 7.88049L 12.3904 9.93408L 13.6425 9.30787L 12.6155 7.25428L 11.3634 7.88049ZM 12.3903 9.93394C 12.6844 10.5222 13.1615 10.9991 13.7494 11.2931L 14.3757 10.041C 14.0583 9.88228 13.8011 9.62502 13.6426 9.30801L 12.3903 9.93394ZM 13.7495 11.2931L 15.8029 12.32L 16.4291 11.0679L 14.3757 10.041L 13.7495 11.2931ZM 15.803 11.0678L 13.7495 12.0946L 14.3756 13.3468L 16.4291 12.32L 15.803 11.0678ZM 22.7059 8.97558L 17.1655 6.20527L 16.5393 7.45746L 22.0798 10.2278L 22.7059 8.97558ZM 17.4785 6.5183L 14.7079 0.977516L 13.4557 1.60366L 16.2263 7.14444L 17.4785 6.5183ZM 14.7078 0.977491C 13.5878 -1.26229 10.3879 -1.25605 9.27114 0.977537L 10.5233 1.60364C 11.1253 0.399726 12.8527 0.397836 13.4557 1.60368L 14.7078 0.977491ZM 9.27116 0.977508L 6.51569 6.48782L 7.76786 7.11398L 10.5233 1.60366L 9.27116 0.977508ZM 6.84504 6.1669L 1.04848 8.87987L 1.64194 10.1479L 7.4385 7.4349L 6.84504 6.1669ZM 1.04847 8.87988C -1.26239 9.96149 -1.28899 13.2476 1.00643 14.3653L 1.61931 13.1065C 0.382846 12.5045 0.396873 10.7306 1.64195 10.1479L 1.04847 8.87988ZM 1.00646 14.3653L 6.82631 17.1986L 7.43911 15.9398L 1.61927 13.1065L 1.00646 14.3653ZM 6.50663 16.8823L 9.27116 22.4105L 10.5233 21.7844L 7.75879 16.2561L 6.50663 16.8823ZM 9.27114 22.4105C 10.3911 24.6504 13.5909 24.644 14.7078 22.4106L 13.4557 21.7844C 12.8536 22.9884 11.1262 22.9901 10.5233 21.7844L 9.27114 22.4105ZM 14.7079 22.4105L 17.4785 16.8698L 16.2263 16.2436L 13.4557 21.7844L 14.7079 22.4105ZM 17.1655 17.1828L 22.7059 14.4123L 22.0798 13.1601L 16.5393 15.9306L 17.1655 17.1828ZM 22.7058 14.4123C 24.946 13.2926 24.9397 10.0925 22.7059 8.97558L 22.0798 10.2278C 23.2841 10.8299 23.2857 12.5574 22.0799 13.1601L 22.7058 14.4123Z"/>
<path id="path3_fill" fill-rule="evenodd" d="M 13.767 12.7208C 13.3142 12.9472 12.9473 13.3141 12.7208 13.7669L 11.694 15.8205L 10.667 13.7669C 10.4408 13.3141 10.0737 12.9472 9.62092 12.7208L 7.56732 11.6939L 9.62092 10.6671C 10.0737 10.4407 10.4406 10.0738 10.667 9.62098L 11.694 7.56738L 12.7208 9.62098C 12.9473 10.0738 13.3142 10.4407 13.767 10.6671L 15.8206 11.6939L 13.767 12.7208ZM 22.0976 9.60168L 16.5568 6.83137L 13.7865 1.29059C 12.925 -0.432226 10.4612 -0.428164 9.60168 1.29059L 6.83121 6.83137L 1.29059 9.60168C -0.432226 10.4632 -0.428164 12.927 1.29059 13.7865L 6.83121 16.5568L 9.60168 22.0976C 10.4632 23.8204 12.927 23.8164 13.7865 22.0976L 16.5568 16.5568L 22.0976 13.7865C 23.8204 12.925 23.8164 10.4612 22.0976 9.60168Z"/>
<path id="path4_stroke_2x" d="M 13.767 12.7208L 14.0801 13.3469L 14.0801 13.3469L 13.767 12.7208ZM 12.7208 13.7669L 12.0947 13.4537L 12.0947 13.4539L 12.7208 13.7669ZM 11.694 15.8205L 11.068 16.1336L 11.6941 17.3857L 12.3201 16.1335L 11.694 15.8205ZM 10.667 13.7669L 10.0408 14.0798L 10.0409 14.08L 10.667 13.7669ZM 9.62092 12.7208L 9.30785 13.3469L 9.30787 13.3469L 9.62092 12.7208ZM 7.56732 11.6939L 7.25425 11.0679L 6.00217 11.6939L 7.25425 12.32L 7.56732 11.6939ZM 9.62092 10.6671L 9.30787 10.041L 9.30785 10.041L 9.62092 10.6671ZM 10.667 9.62098L 10.0409 9.30787L 10.0409 9.30793L 10.667 9.62098ZM 11.694 7.56738L 12.3201 7.25435L 11.6941 6.00223L 11.068 7.25428L 11.694 7.56738ZM 12.7208 9.62098L 12.0947 9.93401L 12.0947 9.9342L 12.7208 9.62098ZM 13.767 10.6671L 14.0801 10.041L 14.0801 10.041L 13.767 10.6671ZM 15.8206 11.6939L 16.1337 12.32L 17.3858 11.6939L 16.1337 11.0679L 15.8206 11.6939ZM 16.5568 6.83137L 15.9307 7.14441L 16.0351 7.35312L 16.2438 7.45747L 16.5568 6.83137ZM 13.7865 1.29059L 14.4126 0.977544L 14.4126 0.977491L 13.7865 1.29059ZM 9.60168 1.29059L 8.9756 0.977491L 8.97558 0.97753L 9.60168 1.29059ZM 6.83121 6.83137L 7.14426 7.45747L 7.35296 7.35312L 7.45731 7.14442L 6.83121 6.83137ZM 1.29059 9.60168L 0.977537 8.97558L 0.977491 8.9756L 1.29059 9.60168ZM 1.29059 13.7865L 0.977491 14.4126L 0.977537 14.4126L 1.29059 13.7865ZM 6.83121 16.5568L 7.45731 16.2438L 7.35296 16.0351L 7.14426 15.9307L 6.83121 16.5568ZM 9.60168 22.0976L 8.97558 22.4107L 8.9756 22.4107L 9.60168 22.0976ZM 13.7865 22.0976L 14.4126 22.4107L 14.4126 22.4107L 13.7865 22.0976ZM 16.5568 16.5568L 16.2438 15.9307L 16.0351 16.0351L 15.9307 16.2438L 16.5568 16.5568ZM 22.0976 13.7865L 22.4107 14.4126L 22.4107 14.4126L 22.0976 13.7865ZM 13.454 12.0947C 12.8657 12.3889 12.389 12.8656 12.0947 13.4537L 13.3468 14.0801C 13.5056 13.7626 13.7627 13.5056 14.0801 13.3469L 13.454 12.0947ZM 12.0947 13.4539L 11.0679 15.5075L 12.3201 16.1335L 13.3469 14.0799L 12.0947 13.4539ZM 12.3201 15.5074L 11.2931 13.4538L 10.0409 14.08L 11.068 16.1336L 12.3201 15.5074ZM 11.2932 13.454C 10.9991 12.8655 10.5221 12.3888 9.93396 12.0947L 9.30787 13.3469C 9.62532 13.5056 9.88239 13.7627 10.0408 14.0798L 11.2932 13.454ZM 9.93398 12.0947L 7.88039 11.0679L 7.25425 12.32L 9.30785 13.3469L 9.93398 12.0947ZM 7.88039 12.32L 9.93398 11.2932L 9.30785 10.041L 7.25425 11.0679L 7.88039 12.32ZM 9.93396 11.2932C 10.5222 10.999 10.999 10.5223 11.2931 9.93403L 10.0409 9.30793C 9.88224 9.62527 9.62521 9.8823 9.30787 10.041L 9.93396 11.2932ZM 11.2931 9.93408L 12.3201 7.88049L 11.068 7.25428L 10.0409 9.30787L 11.2931 9.93408ZM 11.0679 7.88041L 12.0947 9.93401L 13.3469 9.30795L 12.3201 7.25435L 11.0679 7.88041ZM 12.0947 9.9342C 12.389 10.5223 12.8657 10.999 13.454 11.2932L 14.0801 10.041C 13.7627 9.88231 13.5056 9.62525 13.3468 9.30775L 12.0947 9.9342ZM 13.4539 11.2932L 15.5075 12.32L 16.1337 11.0679L 14.0801 10.041L 13.4539 11.2932ZM 15.5075 11.0679L 13.4539 12.0947L 14.0801 13.3469L 16.1337 12.32L 15.5075 11.0679ZM 22.4107 8.97558L 16.8699 6.20527L 16.2438 7.45747L 21.7846 10.2278L 22.4107 8.97558ZM 17.1829 6.51832L 14.4126 0.977544L 13.1604 1.60363L 15.9307 7.14441L 17.1829 6.51832ZM 14.4126 0.977491C 13.2925 -1.26233 10.0925 -1.25599 8.9756 0.977491L 10.2278 1.60368C 10.8299 0.399664 12.5574 0.397882 13.1604 1.60368L 14.4126 0.977491ZM 8.97558 0.97753L 6.20512 6.51831L 7.45731 7.14442L 10.2278 1.60364L 8.97558 0.97753ZM 6.51816 6.20527L 0.977537 8.97558L 1.60364 10.2278L 7.14426 7.45747L 6.51816 6.20527ZM 0.977491 8.9756C -1.26233 10.0957 -1.25599 13.2957 0.977491 14.4126L 1.60368 13.1604C 0.399664 12.5583 0.397882 10.8308 1.60368 10.2278L 0.977491 8.9756ZM 0.977537 14.4126L 6.51816 17.1829L 7.14426 15.9307L 1.60364 13.1604L 0.977537 14.4126ZM 6.20512 16.8699L 8.97558 22.4107L 10.2278 21.7846L 7.45731 16.2438L 6.20512 16.8699ZM 8.9756 22.4107C 10.0957 24.6505 13.2957 24.6442 14.4126 22.4107L 13.1604 21.7845C 12.5583 22.9885 10.8308 22.9903 10.2278 21.7845L 8.9756 22.4107ZM 14.4126 22.4107L 17.1829 16.8699L 15.9307 16.2438L 13.1604 21.7846L 14.4126 22.4107ZM 16.8699 17.1829L 22.4107 14.4126L 21.7846 13.1604L 16.2438 15.9307L 16.8699 17.1829ZM 22.4107 14.4126C 24.6505 13.2925 24.6442 10.0925 22.4107 8.9756L 21.7845 10.2278C 22.9885 10.8299 22.9903 12.5574 21.7845 13.1604L 22.4107 14.4126Z"/>
<path id="path5_fill" fill-rule="evenodd" d="M 6.4978 35.8742L 15.8555 31.9248L 29.3426 45.0537L 25.5437 54.4154L 6.4978 35.8742ZM 54.3536 24.9113L 44.9961 28.7874L 32.0353 15.8266L 35.9114 6.46924L 54.3536 24.9113ZM 46.7867 43.4783L 46.7867 33.1097L 56.1439 29.2336L 56.1439 52.8355L 46.7867 43.4783ZM 33.6739 46.7764L 43.5005 46.7773L 52.844 56.1521C 48.9881 56.1581 34.6522 56.18 29.8742 56.1873L 33.6739 46.7764ZM 18.7148 28.1787L 18.7148 18.7146L 28.3069 18.7146L 42.108 32.5155L 42.108 42.1319L 33.0625 42.1454L 18.7148 28.1787ZM 27.713 14.0359L 17.3444 14.0359L 7.98718 4.67871L 31.5891 4.67871L 27.713 14.0359ZM 4.67889 31.5635L 4.67889 7.98706L 14.0361 17.3442L 14.0361 27.6144L 4.67889 31.5635ZM 38.115 2.05594C 36.7892 0.730156 35.0269 0 33.153 0L 7.01813 0C 5.12625 0 3.40812 0.75375 2.14469 1.97516C 2.11516 2.00203 2.08437 2.02703 2.05562 2.05562C 2.02719 2.08422 2.00219 2.11484 1.97531 2.14438C 0.753906 3.40781 0 5.12609 0 7.01797L 0 33.1161C 0 34.9939 0.77875 36.8381 2.12172 38.1436L 23.4197 58.8773C 24.7378 60.1611 26.4769 60.8681 28.3162 60.8681C 28.3188 60.8681 28.3203 60.8681 53.8153 60.8294C 57.6759 60.8225 60.8225 57.6708 60.8225 53.8114L 60.8225 27.6698C 60.8225 25.7958 60.0922 24.0334 58.7666 22.7078L 38.115 2.05594Z"/>
<path id="path6_stroke_2x" d="M 6.4978 35.8742L 6.22562 35.2293L 5.25334 35.6396L 6.00952 36.3758L 6.4978 35.8742ZM 15.8555 31.9248L 16.3437 31.4232L 16.011 31.0994L 15.5833 31.2799L 15.8555 31.9248ZM 29.3426 45.0537L 29.9913 45.3169L 30.1683 44.8806L 29.8309 44.5521L 29.3426 45.0537ZM 25.5437 54.4154L 25.0555 54.917L 25.8011 55.6429L 26.1924 54.6786L 25.5437 54.4154ZM 54.3536 24.9113L 54.6215 25.558L 55.5894 25.1571L 54.8486 24.4163L 54.3536 24.9113ZM 44.9961 28.7874L 44.5011 29.2823L 44.8319 29.6131L 45.264 29.4341L 44.9961 28.7874ZM 32.0353 15.8266L 31.3886 15.5587L 31.2096 15.9908L 31.5404 16.3216L 32.0353 15.8266ZM 35.9114 6.46924L 36.4064 5.97426L 35.6656 5.2335L 35.2647 6.20135L 35.9114 6.46924ZM 46.7867 43.4783L 46.0867 43.4783L 46.0867 43.7683L 46.2918 43.9733L 46.7867 43.4783ZM 46.7867 33.1097L 46.5189 32.463L 46.0867 32.642L 46.0867 33.1097L 46.7867 33.1097ZM 56.1439 29.2336L 56.8439 29.2336L 56.8439 28.186L 55.876 28.5869L 56.1439 29.2336ZM 56.1439 52.8355L 55.649 53.3305L 56.8439 54.5255L 56.8439 52.8355L 56.1439 52.8355ZM 33.6739 46.7764L 33.674 46.0764L 33.2016 46.0763L 33.0248 46.5143L 33.6739 46.7764ZM 43.5005 46.7773L 43.9963 46.2832L 43.7911 46.0773L 43.5005 46.0773L 43.5005 46.7773ZM 52.844 56.1521L 52.8451 56.8521L 54.5274 56.8496L 53.3399 55.658L 52.844 56.1521ZM 29.8742 56.1873L 29.2251 55.9252L 28.836 56.8889L 29.8753 56.8873L 29.8742 56.1873ZM 18.7148 28.1787L 18.0148 28.1787L 18.0148 28.4741L 18.2266 28.6803L 18.7148 28.1787ZM 18.7148 18.7146L 18.7148 18.0146L 18.0148 18.0146L 18.0148 18.7146L 18.7148 18.7146ZM 28.3069 18.7146L 28.8018 18.2196L 28.5968 18.0146L 28.3069 18.0146L 28.3069 18.7146ZM 42.108 32.5155L 42.808 32.5155L 42.808 32.2256L 42.6029 32.0206L 42.108 32.5155ZM 42.108 42.1319L 42.109 42.8319L 42.808 42.8309L 42.808 42.1319L 42.108 42.1319ZM 33.0625 42.1454L 32.5742 42.647L 32.7785 42.8458L 33.0635 42.8454L 33.0625 42.1454ZM 27.713 14.0359L 27.713 14.7359L 28.1807 14.7359L 28.3597 14.3038L 27.713 14.0359ZM 17.3444 14.0359L 16.8494 14.5309L 17.0544 14.7359L 17.3444 14.7359L 17.3444 14.0359ZM 7.98718 4.67871L 7.98718 3.97871L 6.29723 3.97871L 7.49221 5.17369L 7.98718 4.67871ZM 31.5891 4.67871L 32.2358 4.9466L 32.6367 3.97871L 31.5891 3.97871L 31.5891 4.67871ZM 4.67889 31.5635L 3.97889 31.5635L 3.97889 32.6187L 4.95107 32.2084L 4.67889 31.5635ZM 4.67889 7.98706L 5.17387 7.49209L 3.97889 6.29711L 3.97889 7.98706L 4.67889 7.98706ZM 14.0361 17.3442L 14.7361 17.3442L 14.7361 17.0543L 14.5311 16.8493L 14.0361 17.3442ZM 14.0361 27.6144L 14.3083 28.2593L 14.7361 28.0788L 14.7361 27.6144L 14.0361 27.6144ZM 2.14469 1.97516L 2.61583 2.49287L 2.62363 2.48576L 2.63122 2.47843L 2.14469 1.97516ZM 2.05562 2.05562L 1.56199 1.5593L 1.5593 1.56201L 2.05562 2.05562ZM 1.97531 2.14438L 2.47859 2.63091L 2.48592 2.62332L 2.49302 2.61552L 1.97531 2.14438ZM 2.12172 38.1436L 2.61001 37.642L 2.60964 37.6417L 2.12172 38.1436ZM 23.4197 58.8773L 23.9081 58.3759L 23.908 58.3758L 23.4197 58.8773ZM 53.8153 60.8294L 53.8164 61.5294L 53.8166 61.5294L 53.8153 60.8294ZM 58.7666 22.7078L 58.2716 23.2028L 58.2716 23.2028L 58.7666 22.7078ZM 6.76999 36.5191L 16.1276 32.5697L 15.5833 31.2799L 6.22562 35.2293L 6.76999 36.5191ZM 15.3672 32.4264L 28.8544 45.5553L 29.8309 44.5521L 16.3437 31.4232L 15.3672 32.4264ZM 28.694 44.7905L 24.8951 54.1522L 26.1924 54.6786L 29.9913 45.3169L 28.694 44.7905ZM 26.032 53.9139L 6.98609 35.3726L 6.00952 36.3758L 25.0555 54.917L 26.032 53.9139ZM 54.0857 24.2646L 44.7282 28.1406L 45.264 29.4341L 54.6215 25.558L 54.0857 24.2646ZM 45.4911 28.2924L 32.5303 15.3316L 31.5404 16.3216L 44.5011 29.2823L 45.4911 28.2924ZM 32.6821 16.0945L 36.5581 6.73713L 35.2647 6.20135L 31.3886 15.5587L 32.6821 16.0945ZM 35.4165 6.96422L 53.8586 25.4062L 54.8486 24.4163L 36.4064 5.97426L 35.4165 6.96422ZM 47.4867 43.4783L 47.4867 33.1097L 46.0867 33.1097L 46.0867 43.4783L 47.4867 43.4783ZM 47.0546 33.7564L 56.4118 29.8804L 55.876 28.5869L 46.5189 32.463L 47.0546 33.7564ZM 55.4439 29.2336L 55.4439 52.8355L 56.8439 52.8355L 56.8439 29.2336L 55.4439 29.2336ZM 56.6389 52.3405L 47.2817 42.9834L 46.2918 43.9733L 55.649 53.3305L 56.6389 52.3405ZM 33.6738 47.4764L 43.5004 47.4773L 43.5005 46.0773L 33.674 46.0764L 33.6738 47.4764ZM 43.0047 47.2715L 52.3482 56.6463L 53.3399 55.658L 43.9963 46.2832L 43.0047 47.2715ZM 52.843 55.4521C 48.987 55.4581 34.6511 55.48 29.8731 55.4873L 29.8753 56.8873C 34.6532 56.88 48.9892 56.8581 52.8451 56.8521L 52.843 55.4521ZM 30.5233 56.4494L 34.323 47.0384L 33.0248 46.5143L 29.2251 55.9252L 30.5233 56.4494ZM 19.4148 28.1787L 19.4148 18.7146L 18.0148 18.7146L 18.0148 28.1787L 19.4148 28.1787ZM 18.7148 19.4146L 28.3069 19.4146L 28.3069 18.0146L 18.7148 18.0146L 18.7148 19.4146ZM 27.8119 19.2096L 41.613 33.0105L 42.6029 32.0206L 28.8018 18.2196L 27.8119 19.2096ZM 41.408 32.5155L 41.408 42.1319L 42.808 42.1319L 42.808 32.5155L 41.408 32.5155ZM 42.1069 41.4319L 33.0615 41.4454L 33.0635 42.8454L 42.109 42.8319L 42.1069 41.4319ZM 33.5508 41.6438L 19.2031 27.6771L 18.2266 28.6803L 32.5742 42.647L 33.5508 41.6438ZM 27.713 13.3359L 17.3444 13.3359L 17.3444 14.7359L 27.713 14.7359L 27.713 13.3359ZM 17.8393 13.5409L 8.48216 4.18374L 7.49221 5.17369L 16.8494 14.5309L 17.8393 13.5409ZM 7.98718 5.37871L 31.5891 5.37871L 31.5891 3.97871L 7.98718 3.97871L 7.98718 5.37871ZM 30.9423 4.41082L 27.0663 13.768L 28.3597 14.3038L 32.2358 4.9466L 30.9423 4.41082ZM 5.37889 31.5635L 5.37889 7.98706L 3.97889 7.98706L 3.97889 31.5635L 5.37889 31.5635ZM 4.18392 8.48204L 13.5411 17.8392L 14.5311 16.8493L 5.17387 7.49209L 4.18392 8.48204ZM 13.3361 17.3442L 13.3361 27.6144L 14.7361 27.6144L 14.7361 17.3442L 13.3361 17.3442ZM 13.7639 26.9695L 4.40672 30.9185L 4.95107 32.2084L 14.3083 28.2593L 13.7639 26.9695ZM 38.61 1.56096C 37.153 0.103976 35.2126 -0.7 33.153 -0.7L 33.153 0.7C 34.8411 0.7 36.4255 1.35634 37.62 2.55091L 38.61 1.56096ZM 33.153 -0.7L 7.01813 -0.7L 7.01813 0.7L 33.153 0.7L 33.153 -0.7ZM 7.01813 -0.7C 4.93645 -0.7 3.04607 0.130136 1.65815 1.47188L 2.63122 2.47843C 3.77018 1.37736 5.31605 0.7 7.01813 0.7L 7.01813 -0.7ZM 1.67354 1.45745C 1.66444 1.46574 1.66041 1.46902 1.63741 1.48926C 1.61941 1.5051 1.59176 1.5297 1.562 1.5593L 2.54925 2.55195C 2.54824 2.55295 2.55035 2.55076 2.56232 2.54023C 2.56515 2.53774 2.56818 2.53509 2.57188 2.53185C 2.57534 2.52883 2.5797 2.52501 2.58403 2.52122C 2.59275 2.51357 2.60385 2.50377 2.61583 2.49287L 1.67354 1.45745ZM 1.5593 1.56201C 1.53011 1.59135 1.50578 1.61862 1.48996 1.63656C 1.46973 1.65948 1.46631 1.66366 1.4576 1.67323L 2.49302 2.61552C 2.50372 2.60376 2.51337 2.59285 2.52094 2.58424C 2.53069 2.57315 2.53298 2.57048 2.53981 2.56274C 2.55031 2.55083 2.5527 2.54849 2.55195 2.54924L 1.5593 1.56201ZM 1.47204 1.65784C 0.13031 3.04574 -0.7 4.93627 -0.7 7.01797L 0.7 7.01797C 0.7 5.31591 1.3775 3.76988 2.47859 2.63091L 1.47204 1.65784ZM -0.7 7.01797L -0.7 33.1161L 0.7 33.1161L 0.7 7.01797L -0.7 7.01797ZM -0.7 33.1161C -0.7 35.1826 0.154974 37.208 1.6338 38.6455L 2.60964 37.6417C 1.40253 36.4683 0.7 34.8052 0.7 33.1161L -0.7 33.1161ZM 1.63343 38.6452L 22.9314 59.3789L 23.908 58.3758L 2.61001 37.642L 1.63343 38.6452ZM 22.9313 59.3788C 24.3801 60.7898 26.2944 61.5681 28.3162 61.5681L 28.3162 60.1681C 26.6594 60.1681 25.0955 59.5324 23.9081 58.3759L 22.9313 59.3788ZM 28.3162 61.5681C 28.3195 61.5681 28.3221 61.5681 53.8164 61.5294L 53.8142 60.1294C 28.3185 60.1681 28.318 60.1681 28.3162 60.1681L 28.3162 61.5681ZM 53.8166 61.5294C 58.0632 61.5218 61.5225 58.057 61.5225 53.8114L 60.1225 53.8114C 60.1225 57.2845 57.2887 60.1232 53.8141 60.1294L 53.8166 61.5294ZM 61.5225 53.8114L 61.5225 27.6698L 60.1225 27.6698L 60.1225 53.8114L 61.5225 53.8114ZM 61.5225 27.6698C 61.5225 25.61 60.7184 23.6697 59.2615 22.2128L 58.2716 23.2028C 59.466 24.3972 60.1225 25.9816 60.1225 27.6698L 61.5225 27.6698ZM 59.2615 22.2128L 38.61 1.56097L 37.62 2.55091L 58.2716 23.2028L 59.2615 22.2128Z"/>
</defs>
</svg>
