<svg width="558" height="225" viewBox="0 0 558 225" version="1.1" xmlns="http://www.w3.org/2000/svg" xmlns:xlink="http://www.w3.org/1999/xlink">
<title>Component</title>
<desc>Created using Figma</desc>
<g id="Canvas" transform="translate(-107 -1522)">
<g id="Component">
<g id="Page 1">
<g id="Group 3">
<mask id="mask0_outline" mask-type="alpha">
<g id="Clip 2">
<use xlink:href="#path0_fill" transform="translate(183.287 1719.29)" fill="#FFFFFF"/>
</g>
</mask>
<g id="Fill 1" mask="url(#mask0_outline)">
<use xlink:href="#path1_fill" transform="translate(180.536 1716.54)" fill="#020303"/>
</g>
</g>
<g id="Group 6">
<mask id="mask1_outline" mask-type="alpha">
<g id="Clip 5">
<use xlink:href="#path2_fill" transform="translate(189.161 1728.88)" fill="#FFFFFF"/>
</g>
</mask>
<g id="Fill 4" mask="url(#mask1_outline)">
<use xlink:href="#path3_fill" transform="translate(186.41 1726.13)" fill="#020303"/>
</g>
</g>
<g id="Group 9">
<mask id="mask2_outline" mask-type="alpha">
<g id="Clip 8">
<use xlink:href="#path4_fill" transform="translate(200.277 1728.9)" fill="#FFFFFF"/>
</g>
</mask>
<g id="Fill 7" mask="url(#mask2_outline)">
<use xlink:href="#path5_fill" transform="translate(197.526 1726.15)" fill="#020303"/>
</g>
</g>
<g id="Group 12">
<mask id="mask3_outline" mask-type="alpha">
<g id="Clip 11">
<use xlink:href="#path6_fill" transform="translate(216.679 1728.9)" fill="#FFFFFF"/>
</g>
</mask>
<g id="Fill 10" mask="url(#mask3_outline)">
<use xlink:href="#path7_fill" transform="translate(213.927 1726.15)" fill="#020303"/>
</g>
</g>
<g id="Group 15">
<mask id="mask4_outline" mask-type="alpha">
<g id="Clip 14">
<use xlink:href="#path8_fill" transform="translate(232.008 1719.29)" fill="#FFFFFF"/>
</g>
</mask>
<g id="Fill 13" mask="url(#mask4_outline)">
<use xlink:href="#path9_fill" transform="translate(229.257 1716.54)" fill="#020303"/>
</g>
</g>
<g id="Group 18">
<mask id="mask5_outline" mask-type="alpha">
<g id="Clip 17">
<use xlink:href="#path10_fill" transform="translate(247.612 1728.9)" fill="#FFFFFF"/>
</g>
</mask>
<g id="Fill 16" mask="url(#mask5_outline)">
<use xlink:href="#path11_fill" transform="translate(244.862 1726.15)" fill="#020303"/>
</g>
</g>
<g id="Group 21">
<mask id="mask6_outline" mask-type="alpha">
<g id="Clip 20">
<use xlink:href="#path12_fill" transform="translate(264.637 1728.9)" fill="#FFFFFF"/>
</g>
</mask>
<g id="Fill 19" mask="url(#mask6_outline)">
<use xlink:href="#path13_fill" transform="translate(261.885 1726.15)" fill="#020303"/>
</g>
</g>
<g id="Group 24">
<mask id="mask7_outline" mask-type="alpha">
<g id="Clip 23">
<use xlink:href="#path14_fill" transform="translate(275.968 1728.94)" fill="#FFFFFF"/>
</g>
</mask>
<g id="Fill 22" mask="url(#mask7_outline)">
<use xlink:href="#path15_fill" transform="translate(273.216 1726.19)" fill="#020303"/>
</g>
</g>
<g id="Group 27">
<mask id="mask8_outline" mask-type="alpha">
<g id="Clip 26">
<use xlink:href="#path16_fill" transform="translate(291.873 1728.94)" fill="#FFFFFF"/>
</g>
</mask>
<g id="Fill 25" mask="url(#mask8_outline)">
<use xlink:href="#path17_fill" transform="translate(289.122 1726.19)" fill="#020303"/>
</g>
</g>
<g id="Group 30">
<mask id="mask9_outline" mask-type="alpha">
<g id="Clip 29">
<use xlink:href="#path18_fill" transform="translate(307.419 1728.94)" fill="#FFFFFF"/>
</g>
</mask>
<g id="Fill 28" mask="url(#mask9_outline)">
<use xlink:href="#path19_fill" transform="translate(304.667 1726.19)" fill="#020303"/>
</g>
</g>
</g>
<g id="Group 6">
<g id="Line 5" opacity="0.05">
<use xlink:href="#path20_stroke" transform="translate(383 1607)"/>
</g>
<g id="Line 5 Copy" opacity="0.05">
<use xlink:href="#path20_stroke" transform="translate(246 1607)"/>
</g>
<g id="Group 13">
<g id="Line 5 Copy" opacity="0.05">
<use xlink:href="#path20_stroke" transform="matrix(0.707107 0.707107 -0.707107 0.707107 387.356 1598.03)"/>
</g>
</g>
<g id="Group 13">
<g id="Line 5 Copy" opacity="0.05">
<use xlink:href="#path20_stroke" transform="matrix(-0.707107 0.707107 0.707107 0.707107 387.644 1600.03)"/>
</g>
</g>
<g id="hearts (1)">
<g id="Fill 1">
<use xlink:href="#path21_fill" transform="translate(296 1522)" fill="#D74B4B"/>
</g>
<g id="Shape">
<use xlink:href="#path22_fill" transform="translate(342 1572)" fill="#FFFFFF"/>
</g>
</g>
<g id="IFTTT_Logo">
<g id="rect7">
<use xlink:href="#path23_fill" transform="translate(107 1595)" fill="#33CCFF"/>
</g>
<g id="rect11">
<use xlink:href="#path24_fill" transform="translate(120.855 1617.17)" fill="#33CCFF"/>
</g>
<g id="rect15">
<use xlink:href="#path25_fill" transform="translate(120.855 1604.7)" fill="#33CCFF"/>
</g>
<g id="rect17">
<use xlink:href="#path26_fill" transform="translate(120.855 1595)"/>
</g>
<g id="rect19">
<use xlink:href="#path27_fill" transform="translate(130.554 1595)" fill="#FF4400"/>
</g>
<g id="rect25">
<use xlink:href="#path28_fill" transform="translate(152.723 1604.7)" fill="#33CCFF"/>
</g>
<g id="rect27">
<use xlink:href="#path26_fill" transform="translate(152.723 1595)"/>
</g>
<g id="rect29">
<use xlink:href="#path29_fill" transform="translate(145.795 1595)" fill="#FF4400"/>
</g>
<g id="rect31">
<use xlink:href="#path29_fill" transform="translate(162.422 1595)" fill="#FF4400"/>
</g>
<g id="rect37">
<use xlink:href="#path28_fill" transform="translate(179.048 1604.7)" fill="#33CCFF"/>
</g>
<g id="rect39">
<use xlink:href="#path26_fill" transform="translate(179.048 1595)"/>
</g>
<g id="rect41">
<use xlink:href="#path29_fill" transform="translate(172.12 1595)" fill="#FF4400"/>
</g>
<g id="rect43">
<use xlink:href="#path29_fill" transform="translate(188.747 1595)" fill="#FF4400"/>
</g>
<g id="rect49">
<use xlink:href="#path28_fill" transform="translate(205.374 1604.7)" fill="#33CCFF"/>
</g>
<g id="rect51">
<use xlink:href="#path26_fill" transform="translate(205.374 1595)"/>
</g>
<g id="rect53">
<use xlink:href="#path29_fill" transform="translate(198.446 1595)" fill="#FF4400"/>
</g>
<g id="rect55">
<use xlink:href="#path29_fill" transform="translate(215.072 1595)" fill="#FF4400"/>
</g>
<g id="rect57">
<use xlink:href="#path26_fill" transform="translate(120.855 1607.47)"/>
</g>
<g id="rect59">
<use xlink:href="#path30_fill" transform="translate(130.554 1607.47)" fill="#FF4400"/>
</g>
</g>
<g id="Group">
<g id="Fill 11">
<use xlink:href="#path31_fill" transform="translate(550.288 1591.09)" fill="#11110F"/>
</g>
<g id="Fill 13">
<use xlink:href="#path32_fill" transform="translate(600.826 1592.22)" fill="#11110F"/>
</g>
<g id="Fill 14">
<use xlink:href="#path33_fill" transform="translate(575.561 1592.86)" fill="#11110F"/>
</g>
<g id="Fill 15">
<use xlink:href="#path34_fill" transform="translate(575.842 1601.49)" fill="#11110F"/>
</g>
<g id="Fill 16">
<use xlink:href="#path35_fill" transform="translate(624.535 1601.54)" fill="#11110F"/>
</g>
<g id="Fill 17">
<use xlink:href="#path36_fill" transform="translate(645.689 1592.22)" fill="#11110F"/>
</g>
<g id="Fill 18">
<use xlink:href="#path37_fill" transform="translate(584.159 1595.82)" fill="#11110F"/>
</g>
</g>
<g id="Zendesk_logo_RGB">
<g id="Group">
<g id="Shape">
<use xlink:href="#path38_fill" transform="translate(508.036 1728.64)" fill="#03363D"/>
</g>
<g id="Shape">
<use xlink:href="#path39_fill" transform="translate(431 1729.07)" fill="#03363D"/>
</g>
<g id="Shape">
<use xlink:href="#path40_fill" transform="translate(448.071 1728.64)" fill="#03363D"/>
</g>
<g id="Shape">
<use xlink:href="#path41_fill" transform="translate(487.071 1721.36)" fill="#03363D"/>
</g>
<g id="Shape">
<use xlink:href="#path42_fill" transform="translate(527.536 1728.68)" fill="#03363D"/>
</g>
<g id="Shape">
<use xlink:href="#path43_fill" transform="translate(545.036 1721.32)" fill="#03363D"/>
</g>
<g id="Shape">
<use xlink:href="#path44_fill" transform="translate(468.5 1728.68)" fill="#03363D"/>
</g>
</g>
</g>
</g>
</g>
</g>
<defs>
<path id="path0_fill" fill-rule="evenodd" d="M 0.508259 0.333295C 0.171268 0.555696 0 0.845866 0 1.19641L 0 25.3606C 0 25.6668 0.174964 25.9458 0.526741 26.2034C 0.875437 26.4627 1.30484 26.5915 1.81864 26.5915C 2.30904 26.5915 2.73905 26.4627 3.11239 26.2034C 3.48388 25.9477 3.6724 25.6668 3.6724 25.3606L 3.6724 1.19949C 3.6724 0.845866 3.49313 0.559393 3.13026 0.333295C 2.76801 0.113357 2.33121 0 1.81864 0C 1.28266 0 0.845866 0.113357 0.508259 0.333295Z"/>
<path id="path1_fill" fill-rule="evenodd" d="M 0 32.0942L 9.17577 32.0942L 9.17577 0L 0 0L 0 32.0942Z"/>
<path id="path2_fill" fill-rule="evenodd" d="M 5.20082 0.333295L 0.283336 3.41612C 0.0633986 3.6225 -0.0314764 3.93608 0.00918432 4.36363C 0.0467647 4.78811 0.243291 5.19102 0.59014 5.57175C 0.93822 5.95495 1.32758 6.19521 1.77361 6.2981C 2.21226 6.3979 2.54555 6.34245 2.76549 6.13854L 4.71104 4.92611L 4.71104 15.7634C 4.71104 16.0696 4.87923 16.3487 5.22115 16.6062C 5.55506 16.8656 5.982 16.9943 6.4958 16.9943C 7.00837 16.9943 7.45133 16.8656 7.82282 16.6062C 8.19677 16.3487 8.38406 16.0696 8.38406 15.7634L 8.38406 1.19271C 8.38406 0.839089 8.20109 0.553232 7.8413 0.333295C 7.48151 0.109661 7.03363 0 6.4958 0C 5.9592 0 5.5298 0.109661 5.20082 0.333295Z"/>
<path id="path3_fill" fill-rule="evenodd" d="M 0 22.4971L 13.8862 22.4971L 13.8862 0L 0 0L 0 22.4971Z"/>
<path id="path4_fill" fill-rule="evenodd" d="M 2.71688 0.661661C 3.8332 0.219321 5.01729 0 6.26175 0C 8.63855 0 10.3962 0.643795 11.5396 1.93323C 12.6812 3.22575 13.2554 4.83246 13.2554 6.76138L 13.2554 15.5071C 13.2554 15.8361 13.086 16.1189 12.7508 16.3659C 12.4175 16.6062 11.9943 16.7288 11.4879 16.7288C 11.024 16.7288 10.6352 16.6062 10.3137 16.3659C 9.98898 16.1189 9.82696 15.8361 9.82696 15.5071L 9.82696 14.2873C 8.28062 16.1016 6.54083 17.0073 4.60267 17.0073C 3.26395 17.0073 2.16179 16.613 1.29683 15.8195C 0.433098 15.0334 0 13.8924 0 12.4083C 0 10.5465 0.69308 9.25278 2.07554 8.52273C 3.46171 7.78837 5.46763 7.42428 8.09641 7.42428L 9.61749 7.42428L 9.61749 6.77987C 9.61749 5.73316 9.33656 4.83062 8.77162 4.06854C 8.20669 3.30707 7.34912 2.92819 6.19398 2.92819C 5.20149 2.92819 4.32852 3.11855 3.58122 3.50175C 2.82962 3.88495 2.42239 4.07778 2.35216 4.07778C 1.96096 4.07778 1.64368 3.88495 1.40033 3.50175C 1.1576 3.11855 1.03746 2.69531 1.03746 2.23018C 1.03746 1.62704 1.59624 1.10338 2.71688 0.661661ZM 4.29033 13.6435C 4.70433 14.0267 5.24955 14.2195 5.91737 14.2195C 6.79281 14.2195 7.63005 13.8474 8.42478 13.1038C 9.22136 12.3577 9.6175 11.5722 9.6175 10.7331L 9.6175 9.44556L 8.75315 9.44556C 7.71568 9.44556 6.86735 9.49053 6.21001 9.58417C 5.55266 9.67597 4.96554 9.92178 4.44558 10.3161C 3.92808 10.7097 3.66933 11.2593 3.66933 11.9548C 3.66933 12.6984 3.87448 13.2584 4.29033 13.6435Z"/>
<path id="path5_fill" fill-rule="evenodd" d="M 0 22.51L 18.7569 22.51L 18.7569 0L 0 0L 0 22.51Z"/>
<path id="path6_fill" fill-rule="evenodd" d="M 1.80078 1.91783C 0.598822 3.19618 0 4.86696 0 6.9345L 0 10.0709C 0 12.1606 0.598822 13.8407 1.80078 15.1055C 2.9978 16.3758 4.79612 17.0073 7.19756 17.0073C 8.71926 17.0073 10.0112 16.7288 11.0714 16.1688C 12.1335 15.6143 12.6621 15.0081 12.6621 14.3575C 12.6621 13.9429 12.5204 13.5456 12.2327 13.1741C 11.9438 12.8026 11.568 12.6147 11.1096 12.6147C 10.9673 12.6147 10.5465 12.8026 9.8442 13.1741C 9.13757 13.5456 8.35023 13.7341 7.47418 13.7341C 4.91255 13.7341 3.63236 12.5099 3.63236 10.0641L 3.63236 6.94497C 3.63236 4.49979 4.90146 3.27565 7.44091 3.27565C 8.29417 3.27565 9.07227 3.45185 9.77521 3.7987C 10.4788 4.14554 10.8891 4.32236 11.0037 4.32236C 11.3949 4.32236 11.7349 4.12337 12.0257 3.72846C 12.311 3.33418 12.4576 2.93989 12.4576 2.54314C 12.4576 1.89504 11.9487 1.30546 10.934 0.784259C 9.91937 0.261214 8.66073 0 7.16183 0C 4.78503 0 2.9978 0.638866 1.80078 1.91783Z"/>
<path id="path7_fill" fill-rule="evenodd" d="M 0 22.51L 18.1642 22.51L 18.1642 0L 0 0L 0 22.51Z"/>
<path id="path8_fill" fill-rule="evenodd" d="M 0.483616 0.333295C 0.159562 0.553232 0 0.836009 0 1.18532L 0 25.1252C 0 25.429 0.166339 25.705 0.501482 25.9637C 0.834777 26.2188 1.25555 26.3469 1.76381 26.3469C 2.2733 26.3469 2.70948 26.2188 3.07666 25.9637C 3.44507 25.705 3.62989 25.429 3.62989 25.1252L 3.62989 20.7702L 6.15702 18.4723L 11.2445 26.0339C 11.499 26.3808 11.8206 26.5558 12.2118 26.5558C 12.651 26.5558 13.1014 26.3488 13.5628 25.9458C 14.0236 25.5392 14.2559 25.1252 14.2559 24.7082C 14.2559 24.4993 14.1857 24.2886 14.0489 24.0798L 8.61329 16.2051L 13.0786 12.197C 13.2862 11.9888 13.3897 11.7325 13.3897 11.4312C 13.3897 11.0117 13.1956 10.6168 12.802 10.2459C 12.4095 9.87378 12.0165 9.68587 11.6247 9.68587C 11.3252 9.68587 11.0714 9.79246 10.8638 10.0007L 3.62989 16.6931L 3.62989 1.18532C 3.62989 0.836009 3.45493 0.553232 3.09453 0.333295C 2.73844 0.110893 2.29302 0 1.76381 0C 1.23091 0 0.80767 0.110893 0.483616 0.333295Z"/>
<path id="path9_fill" fill-rule="evenodd" d="M 0 32.0579L 19.7586 32.0579L 19.7586 0L 0 0L 0 32.0579Z"/>
<path id="path10_fill" fill-rule="evenodd" d="M 2.11128 2.00346C 3.52023 0.668437 5.21504 0 7.19818 0C 9.08829 0 10.7092 0.604982 12.059 1.8131C 13.4106 3.02121 14.0846 4.54538 14.0846 6.38989C 14.0846 7.10146 14.0045 7.67502 13.8419 8.11243C 13.6823 8.5523 13.426 8.85603 13.081 9.0353C 12.7348 9.21458 12.4101 9.32609 12.1107 9.37599C 11.8095 9.4185 11.4201 9.44561 10.934 9.44561L 3.63297 9.44561L 3.63297 10.2527C 3.63297 11.422 4.04944 12.3516 4.87929 13.0453C 5.71037 13.7341 6.79465 14.0791 8.13461 14.0791C 9.07966 14.0791 9.9705 13.8561 10.8121 13.4125C 11.6567 12.9689 12.1699 12.7459 12.3522 12.7459C 12.7459 12.7459 13.081 12.932 13.3564 13.3034C 13.6343 13.6756 13.7723 14.0384 13.7723 14.3871C 13.7723 14.9625 13.2166 15.5416 12.1107 16.13C 11.0061 16.7128 9.64213 17.0073 8.02864 17.0073C 5.67648 17.0073 3.75003 16.3684 2.25113 15.0901C 0.751607 13.8092 0 12.1391 0 10.0709L 0 6.76138C 0 4.92611 0.70417 3.34157 2.11128 2.00346ZM 3.63298 6.00916L 3.63298 7.10884L 9.37908 7.10884C 9.88549 7.10884 10.2243 7.04108 10.3981 6.90431C 10.5743 6.76631 10.6568 6.48969 10.6568 6.07939C 10.6568 5.16637 10.3235 4.38889 9.65569 3.74879C 8.98479 3.10808 8.15618 2.78772 7.1643 2.78772C 6.19399 2.78772 5.36352 3.09206 4.67229 3.69704C 3.98106 4.3051 3.63298 5.07519 3.63298 6.00916Z"/>
<path id="path11_fill" fill-rule="evenodd" d="M 0 22.51L 19.5868 22.51L 19.5868 0L 0 0L 0 22.51Z"/>
<path id="path12_fill" fill-rule="evenodd" d="M 7.81856 0C 6.87351 0 6.00485 0.287705 5.2095 0.863732C 4.41354 1.43976 3.81656 2.13715 3.42536 2.95776L 3.42536 1.40772C 3.42536 1.05595 3.26641 0.768241 2.94112 0.543991C 2.61954 0.319125 2.22587 0.208848 1.76936 0.208848C 1.25555 0.208848 0.834777 0.319125 0.502098 0.542143C 0.166339 0.761464 0 1.04486 0 1.39355L 0 15.5071C 0 15.8109 0.166339 16.0869 0.502098 16.3456C 0.834777 16.6007 1.25555 16.7288 1.76936 16.7288C 2.27269 16.7288 2.71256 16.6007 3.07912 16.3456C 3.44815 16.0912 3.63236 15.8133 3.63236 15.5114L 3.63236 8.38473C 3.63236 6.87967 4.05375 5.65061 4.89715 4.70186C 5.73871 3.75187 6.71579 3.27565 7.81856 3.27565L 8.92996 3.27565C 9.29713 3.27565 9.61934 3.11178 9.89596 2.78095C 10.1732 2.45504 10.313 2.06507 10.313 1.62027C 10.313 1.17423 10.1732 0.792884 9.89596 0.475607C 9.61934 0.158946 9.29713 0 8.92996 0L 7.81856 0Z"/>
<path id="path13_fill" fill-rule="evenodd" d="M 0 22.2316L 15.8158 22.2316L 15.8158 0L 0 0L 0 22.2316Z"/>
<path id="path14_fill" fill-rule="evenodd" d="M 1.93446 1.93693C 3.22883 0.646875 4.76346 0 6.54021 0C 8.31327 0 9.86146 0.640098 11.1762 1.92029C 12.4915 3.19679 13.1476 4.7302 13.1476 6.5205L 13.1476 10.3167C 13.1476 12.0584 12.4859 13.5961 11.1608 14.9367C 9.83435 16.2717 8.29355 16.9383 6.54021 16.9383C 4.80905 16.9383 3.28551 16.2717 1.97143 14.9367C 0.656116 13.5961 0 12.0584 0 10.3167L 0 6.5205C 0 4.75361 0.645027 3.22637 1.93446 1.93693ZM 3.50974 13.4427C 4.35191 14.3563 5.36227 14.8116 6.5402 14.8116C 7.73784 14.8116 8.7636 14.3563 9.61871 13.4427C 10.472 12.5315 10.8995 11.4842 10.8995 10.3057L 10.8995 6.53161C 10.8995 5.39558 10.4677 4.38029 9.60023 3.47836C 8.73465 2.57828 7.7169 2.12732 6.5402 2.12732C 5.36227 2.12732 4.35191 2.57828 3.50974 3.47836C 2.66819 4.38029 2.24988 5.39558 2.24988 6.53161L 2.24988 10.3057C 2.24988 11.4842 2.66819 12.5315 3.50974 13.4427Z"/>
<path id="path15_fill" fill-rule="evenodd" d="M 0 22.4398L 18.6503 22.4398L 18.6503 0L 0 0L 0 22.4398Z"/>
<path id="path16_fill" fill-rule="evenodd" d="M 3.94532 0.780563C 3.13704 1.29745 2.53883 1.93015 2.14454 2.68422L 2.14454 1.05903C 2.14454 0.823071 2.04228 0.62408 1.83404 0.458973C 1.62704 0.292634 1.38431 0.208848 1.10646 0.208848C 0.783643 0.208848 0.5175 0.285857 0.311116 0.438027C 0.102884 0.58958 0 0.791652 0 1.04609L 0 15.7862C 0 16.0222 0.102884 16.231 0.311116 16.4165C 0.5175 16.6025 0.783643 16.6955 1.10646 16.6955C 1.40711 16.6955 1.67202 16.6025 1.90243 16.4165C 2.13099 16.231 2.25051 16.0222 2.25051 15.7918L 2.25051 6.54268C 2.25051 5.22305 2.66451 4.1554 3.49559 3.34404C 4.32667 2.53513 5.2822 2.12729 6.3671 2.12729C 7.54195 2.12729 8.55723 2.58011 9.41234 3.48265C 10.265 4.3852 10.6932 5.40603 10.6932 6.54268L 10.6932 15.7918C 10.6932 16.0696 10.8059 16.2902 11.04 16.4485C 11.2692 16.6124 11.5218 16.6955 11.7984 16.6955C 12.0972 16.6955 12.3633 16.6124 12.595 16.4485C 12.8266 16.2902 12.9424 16.0684 12.9424 15.7862L 12.9424 6.5205C 12.9424 4.7302 12.3294 3.19679 11.1072 1.92029C 9.88548 0.640098 8.44511 0 6.78171 0C 5.69866 0 4.75114 0.261214 3.94532 0.780563Z"/>
<path id="path17_fill" fill-rule="evenodd" d="M 0 22.1971L 18.4433 22.1971L 18.4433 0L 0 0L 0 22.1971Z"/>
<path id="path18_fill" fill-rule="evenodd" d="M 1.9357 1.89996C 3.23006 0.63517 4.78503 0 6.60737 0C 8.36379 0 9.87871 0.608063 11.1608 1.81371C 12.4397 3.02737 13.081 4.53921 13.081 6.35231C 13.081 7.00042 13.0047 7.52162 12.8562 7.91652C 12.7028 8.3108 12.4625 8.58496 12.1267 8.75006C 11.7941 8.91332 11.4867 9.01805 11.2125 9.06364C 10.934 9.11046 10.5533 9.13326 10.0697 9.13326L 2.24866 9.13326L 2.24866 10.4208C 2.24866 11.7947 2.73844 12.8919 3.71799 13.715C 4.70186 14.5399 5.96357 14.9539 7.51053 14.9539C 8.29171 14.9539 8.97986 14.8393 9.56821 14.604C 10.1553 14.3742 10.6051 14.1388 10.9162 13.9072C 11.2285 13.6737 11.4737 13.5585 11.6604 13.5585C 11.9148 13.5585 12.1403 13.6805 12.3337 13.9238C 12.5315 14.1678 12.6307 14.4087 12.6307 14.6372C 12.6307 15.1295 12.1335 15.6322 11.141 16.1559C 10.1498 16.6752 8.91517 16.9383 7.43845 16.9383C 5.24893 16.9383 3.45862 16.3327 2.07739 15.1092C 0.691232 13.8893 0 12.2919 0 10.3167L 0 6.41515C 0 4.66982 0.648107 3.16722 1.9357 1.89996ZM 2.24866 6.14407L 2.24866 7.45754L 9.16837 7.45754C 9.86268 7.45754 10.321 7.38607 10.5533 7.2339C 10.7831 7.08666 10.8983 6.76446 10.8983 6.28207C 10.8983 5.12817 10.4898 4.11227 9.668 3.23498C 8.85233 2.35585 7.81794 1.92029 6.57409 1.92029C 5.3746 1.92029 4.35192 2.33367 3.51037 3.16537C 2.66882 3.99522 2.24866 4.99017 2.24866 6.14407Z"/>
<path id="path19_fill" fill-rule="evenodd" d="M 0 22.4398L 18.5832 22.4398L 18.5832 0L 0 0L 0 22.4398Z"/>
<path id="path20_stroke" d="M 0.768817 0C -0.335752 0 -1.23118 0.895431 -1.23118 2C -1.23118 3.10457 -0.335752 4 0.768817 4L 0.768817 0ZM 142.44 4C 143.545 4 144.44 3.10457 144.44 2C 144.44 0.895431 143.545 0 142.44 0L 142.44 4ZM 0.768817 4L 142.44 4L 142.44 0L 0.768817 0L 0.768817 4Z"/>
<path id="path21_fill" fill-rule="evenodd" d="M 89.9145 170C 138.649 135.166 163.022 103.29 174.476 78.9909C 187.868 50.5828 176.22 15.3741 147.005 3.56056C 112.668 -10.3152 89.9145 21.7076 89.9145 21.7076C 89.9145 21.7076 67.3471 -10.4079 33.0068 3.48718C 3.78025 15.2968 -7.86843 50.5095 5.52366 78.9136C 16.9898 103.216 41.1958 135.166 89.9145 170Z"/>
<path id="path22_fill" fill-rule="evenodd" d="M 83.3987 19.4432C 82.6318 19.4432 81.9608 19.6396 81.2898 19.9342L 69.9782 7.36487C 70.3617 6.67749 70.5534 5.89185 70.5534 5.00806C 70.5534 2.25854 68.3486 0 65.6645 0C 63.4597 0 61.5425 1.47302 60.9673 3.6333L 48.8889 3.6333C 48.3137 1.57117 46.3965 0 44.1917 0C 41.9869 0 40.0697 1.47302 39.4946 3.6333L 27.6078 3.6333C 27.0327 1.57117 25.1155 0 22.9107 0C 20.2266 0 18.0218 2.25854 18.0218 5.00806C 18.0218 5.7937 18.2135 6.57922 18.5011 7.26672L 6.99783 19.9342C 6.32678 19.6396 5.65576 19.4432 4.88889 19.4432C 2.2048 19.4432 0 21.7018 0 24.4514C 0 27.2009 2.2048 29.4595 4.88889 29.4595C 5.65576 29.4595 6.42267 29.2631 7.09369 28.8702L 18.4052 40.4576C 18.1176 41.145 17.9259 41.8325 17.9259 42.7162C 17.9259 45.4658 20.1307 47.7244 22.8148 47.7244C 23.5817 47.7244 24.3486 47.528 24.9237 47.2334L 39.6863 62.4541C 39.3987 63.1415 39.207 63.8289 39.207 64.6145C 39.207 67.364 41.4118 69.6226 44.0959 69.6226C 46.78 69.6226 48.9847 67.364 48.9847 64.6145C 48.9847 63.8289 48.793 63.1415 48.5054 62.4541L 63.268 47.2334C 63.939 47.6261 64.7059 47.8225 65.4728 47.8225C 68.1569 47.8225 70.3617 45.564 70.3617 42.8145C 70.3617 41.9307 70.1699 41.145 69.7865 40.4576L 80.9063 28.9685C 81.5773 29.3613 82.3442 29.5576 83.1111 29.5576C 85.7952 29.5576 88 27.2991 88 24.5496C 88 21.8 86.1786 19.4432 83.3987 19.4432ZM 24.3486 37.9045L 24.3467 37.9042C 23.868 37.8062 23.3894 37.7081 22.9107 37.7081C 21.9521 37.7081 21.0893 38.0028 20.3224 38.4938L 9.20261 27.0045C 9.68192 26.219 9.87363 25.3352 9.87363 24.4514C 9.87363 23.4695 9.58606 22.4874 9.10675 21.7019L 20.3224 9.32886C 21.0893 9.81982 21.9521 10.1145 22.9107 10.1145C 25.2113 10.1145 27.0327 8.54333 27.6078 6.38293L 39.4945 6.38293C 39.7821 7.26672 40.1656 8.05225 40.8366 8.64148L 24.3486 37.9045ZM 44.1917 59.6063C 45.1503 59.6063 46.0131 59.9009 46.78 60.3918L 61.4466 45.2694C 61.1591 44.8766 60.9673 44.4838 60.8715 43.9928L 27.6078 43.9928C 27.512 44.4838 27.3203 44.9747 27.0327 45.3676L 41.6035 60.3918C 42.3704 59.9009 43.2331 59.6063 44.1917 59.6063ZM 60.9673 41.145L 27.512 41.145C 27.3527 40.5739 27.061 40.1383 26.7469 39.6693L 26.6408 39.5104C 26.6117 39.4666 26.5826 39.4222 26.5534 39.3774L 43.1373 9.91797C 43.4248 10.0161 43.8083 10.0161 44.0959 10.0161C 44.3835 10.0161 44.7669 10.0161 45.0545 9.91797L 61.7342 39.5739C 61.4466 40.0648 61.159 40.5558 60.9673 41.145ZM 68.1569 38.3955L 79.1808 27.0045C 78.7974 26.219 78.5098 25.3352 78.6057 24.5496C 78.6057 23.5676 78.8932 22.5857 79.3726 21.8L 68.1569 9.42712C 67.39 9.81982 66.5272 10.1145 65.6645 10.1145C 63.4597 10.1145 61.5425 8.54333 60.9673 6.38293L 48.8889 6.38293C 48.6972 7.26672 48.2179 8.05225 47.5468 8.64148L 64.1307 38.0028C 64.61 37.8064 65.0893 37.7081 65.6645 37.7081C 66.6231 37.7081 67.39 38.0028 68.1569 38.3955Z"/>
<path id="path23_fill" d="M 0 0L 9.6988 0L 9.6988 30.48L 0 30.48L 0 0Z"/>
<path id="path24_fill" d="M 0 0L 9.6988 0L 9.6988 8.31273L 0 8.31273L 0 0Z"/>
<path id="path25_fill" d="M 0 0L 9.6988 0L 9.6988 2.77091L 0 2.77091L 0 0Z"/>
<path id="path26_fill" d="M 0 0L 9.6988 0L 9.6988 9.69818L 0 9.69818L 0 0Z"/>
<path id="path27_fill" d="M 0 0L 12.4699 0L 12.4699 9.69818L 0 9.69818L 0 0Z"/>
<path id="path28_fill" d="M 0 0L 9.6988 0L 9.6988 20.7818L 0 20.7818L 0 0Z"/>
<path id="path29_fill" d="M 0 0L 6.92771 0L 6.92771 9.69818L 0 9.69818L 0 0Z"/>
<path id="path30_fill" d="M 0 0L 8.31325 0L 8.31325 9.69818L 0 9.69818L 0 0Z"/>
<path id="path31_fill" fill-rule="evenodd" d="M 22.0384 13.2444L 12.4232 13.2444C 12.1751 13.2444 11.974 13.4455 11.974 13.6939L 11.974 18.3949C 11.974 18.6427 12.1751 18.8448 12.4232 18.8448L 16.174 18.8448L 16.174 24.6853C 16.174 24.6853 15.3319 24.9725 13.0033 24.9725C 10.2563 24.9725 6.41872 23.9689 6.41872 15.5301C 6.41872 7.08965 10.4148 5.97905 14.1663 5.97905C 17.4139 5.97905 18.8127 6.55055 19.7031 6.8263C 19.983 6.91175 20.2416 6.63347 20.2416 6.38504L 21.3141 1.84318C 21.3141 1.72691 21.2747 1.58681 21.1425 1.49214C 20.781 1.23419 18.5754 0 13.0033 0C 6.58454 0 0 2.73077 0 15.8592C 0 28.9876 7.53854 30.9439 13.8912 30.9439C 19.151 30.9439 22.3418 28.6963 22.3418 28.6963C 22.4733 28.6236 22.4876 28.4399 22.4876 28.3558L 22.4876 13.6939C 22.4876 13.4455 22.2865 13.2444 22.0384 13.2444Z"/>
<path id="path32_fill" fill-rule="evenodd" d="M 21.0539 0.45174C 21.0539 0.201727 20.8557 0 20.6072 0L 15.1933 0C 14.9462 0 14.7451 0.201727 14.7451 0.45174C 14.7451 0.453011 14.7467 10.9145 14.7467 10.9145L 6.30753 10.9145L 6.30753 0.45174C 6.30753 0.201727 6.10866 0 5.86087 0L 0.447293 0C 0.201091 0 0 0.201727 0 0.45174L 0 28.7818C 0 29.0318 0.201091 29.2351 0.447293 29.2351L 5.86087 29.2351C 6.10866 29.2351 6.30753 29.0318 6.30753 28.7818L 6.30753 16.6642L 14.7467 16.6642C 14.7467 16.6642 14.7318 28.7808 14.7318 28.7818C 14.7318 29.0318 14.9325 29.2351 15.1803 29.2351L 20.6069 29.2351C 20.855 29.2351 21.0533 29.0318 21.0539 28.7818L 21.0539 0.45174Z"/>
<path id="path33_fill" fill-rule="evenodd" d="M 6.98164 3.52497C 6.98164 1.57537 5.41898 0 3.49066 0C 1.56425 0 0 1.57537 0 3.52497C 0 5.47235 1.56425 7.05185 3.49066 7.05185C 5.41898 7.05185 6.98164 5.47235 6.98164 3.52497Z"/>
<path id="path34_fill" fill-rule="evenodd" d="M 6.31388 13.5287C 6.31388 12.8025 6.31388 0.451423 6.31388 0.451423C 6.31388 0.202997 6.11343 0 5.86595 0L 0.468895 0C 0.221423 0 0 0.255414 0 0.50384C 0 0.50384 0 16.2398 0 19.2393C 0 19.7898 0.343094 19.9538 0.786892 19.9538C 0.786892 19.9538 3.0907 19.9538 5.6493 19.9538C 6.183 19.9538 6.31388 19.6917 6.31388 19.2304C 6.31388 18.2262 6.31388 14.2921 6.31388 13.5287Z"/>
<path id="path35_fill" fill-rule="evenodd" d="M 17.9197 0L 12.5474 0C 12.3012 0 12.1004 0.202997 12.1004 0.452693L 12.1004 14.3439C 12.1004 14.3439 10.7353 15.3423 8.79814 15.3423C 6.86124 15.3423 6.34724 14.4633 6.34724 12.5668C 6.34724 10.6677 6.34724 0.452693 6.34724 0.452693C 6.34724 0.202997 6.1471 0 5.90026 0L 0.44761 0C 0.201727 0 0 0.202997 0 0.452693C 0 0.452693 0 7.85018 0 13.4839C 0 19.118 3.13994 20.4964 7.45943 20.4964C 11.0035 20.4964 13.8607 18.5385 13.8607 18.5385C 13.8607 18.5385 13.9966 19.5703 14.0583 19.6926C 14.1196 19.8146 14.28 19.9379 14.4535 19.9379L 17.9222 19.9223C 18.1681 19.9223 18.3698 19.719 18.3698 19.4703L 18.3679 0.452693C 18.3679 0.202997 18.1675 0 17.9197 0Z"/>
<path id="path36_fill" fill-rule="evenodd" d="M 9.33123 24.6453C 7.46772 24.5887 6.20367 23.743 6.20367 23.743L 6.20367 14.7715C 6.20367 14.7715 7.45057 14.0071 8.98051 13.8705C 10.9152 13.6974 12.7793 14.2816 12.7793 18.8968C 12.7793 23.7634 11.9381 24.724 9.33123 24.6453ZM 11.4501 8.68345C 8.39881 8.68345 6.32341 10.045 6.32341 10.045L 6.32341 0.45174C 6.32341 0.201727 6.12327 0 5.87675 0L 0.447293 0C 0.200456 0 0 0.201727 0 0.45174L 0 28.7818C 0 29.0318 0.200456 29.2351 0.447928 29.2351C 0.448564 29.2351 4.2137 29.2351 4.21497 29.2351C 4.38461 29.2351 4.51296 29.1477 4.60794 28.9946C 4.70166 28.8424 4.83667 27.6883 4.83667 27.6883C 4.83667 27.6883 7.05662 29.792 11.2592 29.792C 16.1934 29.792 19.023 27.2893 19.023 18.5573C 19.023 9.82456 14.5037 8.68345 11.4501 8.68345Z"/>
<path id="path37_fill" fill-rule="evenodd" d="M 13.5567 5.66963L 9.49544 5.66963C 9.49544 5.66963 9.48941 0.305608 9.48941 0.304655C 9.48941 0.10134 9.38457 0 9.14981 0L 3.61583 0C 3.40044 0 3.28512 0.0946685 3.28512 0.301478L 3.28512 5.84562C 3.28512 5.84562 0.511782 6.51529 0.324033 6.5693C 0.137555 6.6233 0 6.79548 0 7.00102L 0 10.485C 0 10.7357 0.200138 10.9377 0.44761 10.9377L 3.28512 10.9377C 3.28512 10.9377 3.28512 14.5818 3.28512 19.3194C 3.28512 25.5449 7.65195 26.1565 10.5984 26.1565C 11.9451 26.1565 13.5557 25.7241 13.8216 25.6259C 13.9823 25.5669 14.0757 25.4001 14.0757 25.2196L 14.0805 21.3871C 14.0805 21.1371 13.8693 20.9348 13.6316 20.9348C 13.3946 20.9348 12.7895 21.031 12.1662 21.031C 10.1711 21.031 9.49544 20.1034 9.49544 18.9029C 9.49544 17.7033 9.49512 10.9377 9.49512 10.9377L 13.5567 10.9377C 13.8041 10.9377 14.0046 10.7357 14.0046 10.485L 14.0046 6.12105C 14.0046 5.87104 13.8041 5.66963 13.5567 5.66963Z"/>
<path id="path38_fill" fill-rule="evenodd" d="M 13.8214 12.3214C 12.8929 13.2142 11.3571 14.1072 9.21429 14.1072C 6.21429 14.1072 4.5 12.5714 4.03571 10.1072L 17.1429 10.1072C 17.4286 4.21423 14.2857 0 8.71429 0C 3.82144 0 0 3.75 0 8.75C 0 13.7858 3.60715 17.5 9.21429 17.5C 12.5 17.5 14.6071 16.3572 16.1071 14.7858L 13.8214 12.3214ZM 8.78571 3.35718C 11.5 3.35718 12.8571 5.03577 13.2143 7.32141L 4.03571 7.32141C 4.5 4.78577 6.25 3.35718 8.78571 3.35718Z"/>
<path id="path39_fill" d="M 0 13.5L 10.1071 3.21429L 0.25 3.21429L 0.25 0L 14.7857 0L 14.7857 3.28571L 4.67857 13.5714L 14.9286 13.5714L 14.9286 16.7857L 0 16.7857L 0 13.5Z"/>
<path id="path40_fill" fill-rule="evenodd" d="M 13.8214 12.3214C 12.8929 13.2142 11.3571 14.1072 9.21429 14.1072C 6.21429 14.1072 4.5 12.5714 4.03571 10.1072L 17.1429 10.1072C 17.4286 4.21423 14.2857 0 8.71429 0C 3.82144 0 0 3.75 0 8.75C 0 13.7858 3.60715 17.5 9.21429 17.5C 12.5 17.5 14.6071 16.3572 16.1071 14.7858L 13.8214 12.3214ZM 8.78571 3.35718C 11.5 3.35718 12.8571 5.03577 13.2143 7.32141L 4.03571 7.32141C 4.5 4.78577 6.25 3.35718 8.78571 3.35718Z"/>
<path id="path41_fill" fill-rule="evenodd" d="M 8.42856 7.35718C 4 7.35718 0 10.7142 0 16.0714C 0 21.3928 4.10715 24.7858 8.39285 24.7858C 10.6429 24.7858 12.75 23.7858 14.0357 22.1428L 14.0357 24.5L 17.6071 24.5L 17.6071 0L 14.0357 0L 14.0357 9.89282C 12.7857 8.32141 10.6429 7.35718 8.42856 7.35718ZM 8.89288 10.6072C 11.9643 10.6072 14.2143 13.0358 14.2143 16.0358C 14.2143 19.0358 11.9643 21.5 8.89288 21.5C 5.89288 21.5 3.57144 19.0714 3.57144 16.0358C 3.57144 13 5.89288 10.6072 8.89288 10.6072Z"/>
<path id="path42_fill" d="M 0 13.5718L 3.25 11.8932C 4.17857 13.429 5.64286 14.3575 7.57143 14.3575C 9.60714 14.3575 10.6429 13.3218 10.6429 12.1432C 10.6429 10.7861 8.67857 10.5004 6.57143 10.0718C 3.71429 9.46467 0.75 8.5361 0.75 5.07181C 0.75 2.42896 3.28571 -0.0353308 7.25 0.000383503C 10.3929 0.000383503 12.7143 1.25038 14.0357 3.25038L 11.0357 4.89324C 10.25 3.71467 8.96429 2.96467 7.25 2.96467C 5.32143 2.96467 4.35714 3.89324 4.35714 4.96467C 4.35714 6.17896 5.89286 6.50038 8.32143 7.0361C 11.0714 7.64324 14.2143 8.5361 14.2143 12.0361C 14.2143 14.3575 12.1786 17.4647 7.39286 17.429C 3.89286 17.4647 1.42857 16.0718 0 13.5718Z"/>
<path id="path43_fill" d="M 6.39286 17.0357L 3.57143 20.1429L 3.57143 24.5L 0 24.5L 0 0L 3.57143 0L 3.57143 16.0357L 11.1429 7.71429L 15.5 7.71429L 8.92857 14.8929L 15.6786 24.5L 11.6071 24.5L 6.39286 17.0357Z"/>
<path id="path44_fill" d="M 7.78571 0C 3.53571 0 0 2.75 0 7.32143L 0 17.1429L 3.64286 17.1429L 3.64286 7.78571C 3.64286 5.03571 5.21429 3.39286 7.92857 3.39286C 10.6429 3.39286 11.9643 5.03571 11.9643 7.78571L 11.9643 17.1429L 15.6071 17.1429L 15.6071 7.32143C 15.5714 2.75 12.0357 0 7.78571 0Z"/>
</defs>
</svg>
