<svg width="138" height="19" viewBox="0 0 138 19" version="1.1" xmlns="http://www.w3.org/2000/svg" xmlns:xlink="http://www.w3.org/1999/xlink">
<title>Group 4</title>
<desc>Created using Figma</desc>
<g id="Canvas" transform="translate(84 949)">
<g id="Group 4">
<g id="Shape">
<use xlink:href="#path0_fill" transform="translate(-84 -949)" fill="#FFFFFF"/>
</g>
<g id="GraphQL-Ruby Copy">
<use xlink:href="#path1_fill" transform="translate(-52 -952)" fill="#FFFFFF"/>
</g>
</g>
</g>
<defs>
<path id="path0_fill" fill-rule="evenodd" d="M 22.7451 5.30609C 22.5359 5.30609 22.3529 5.35968 22.1699 5.44006L 19.085 2.00989C 19.1895 1.82227 19.2418 1.60791 19.2418 1.3667C 19.2418 0.616333 18.6405 0 17.9085 0C 17.3072 0 16.7843 0.401978 16.6274 0.991516L 13.3333 0.991516C 13.1765 0.428772 12.6536 0 12.0523 0C 11.451 0 10.9281 0.401978 10.7712 0.991516L 7.52941 0.991516C 7.37255 0.428772 6.84967 0 6.24837 0C 5.51634 0 4.91503 0.616333 4.91503 1.3667C 4.91503 1.58112 4.96732 1.79547 5.04575 1.98309L 1.90849 5.44006C 1.72549 5.35968 1.54248 5.30609 1.33334 5.30609C 0.601311 5.30609 0 5.92242 0 6.67279C 0 7.42316 0.601311 8.03949 1.33334 8.03949C 1.54248 8.03949 1.75163 7.9859 1.93464 7.87872L 5.01961 11.0409C 4.94118 11.2285 4.88889 11.4161 4.88889 11.6573C 4.88889 12.4076 5.4902 13.024 6.22222 13.024C 6.43137 13.024 6.64053 12.9704 6.79739 12.89L 10.8235 17.0437C 10.7451 17.2313 10.6928 17.4189 10.6928 17.6333C 10.6928 18.3837 11.2941 19 12.0261 19C 12.7582 19 13.3595 18.3837 13.3595 17.6333C 13.3595 17.4189 13.3072 17.2313 13.2288 17.0437L 17.2549 12.89C 17.4379 12.9972 17.6471 13.0508 17.8562 13.0508C 18.5882 13.0508 19.1895 12.4344 19.1895 11.6841C 19.1895 11.4429 19.1373 11.2285 19.0327 11.0409L 22.0654 7.90552C 22.2484 8.0127 22.4575 8.06628 22.6667 8.06628C 23.3987 8.06628 24 7.44995 24 6.69958C 24 5.94922 23.5033 5.30609 22.7451 5.30609ZM 6.64052 10.3441C 6.5098 10.3173 6.37908 10.2905 6.24837 10.2905C 5.98692 10.2905 5.75163 10.3709 5.54248 10.5049L 2.5098 7.36951C 2.64052 7.15515 2.69281 6.91394 2.69281 6.67279C 2.69281 6.40479 2.61438 6.13678 2.48366 5.92242L 5.54248 2.54584C 5.75163 2.67981 5.98692 2.76019 6.24837 2.76019C 6.87582 2.76019 7.37254 2.33142 7.52941 1.74188L 10.7712 1.74188C 10.8497 1.98309 10.9542 2.19745 11.1373 2.35822L 6.64052 10.3441ZM 12.0523 16.2665C 12.3137 16.2665 12.549 16.3469 12.7582 16.481L 16.7582 12.354C 16.6797 12.2468 16.6274 12.1396 16.6013 12.0056L 7.52941 12.0056C 7.50327 12.1396 7.45098 12.2736 7.37255 12.3808L 11.3464 16.481C 11.5556 16.3469 11.7908 16.2665 12.0523 16.2665ZM 16.6274 11.2285L 7.50327 11.2285C 7.45981 11.0726 7.38021 10.9537 7.29453 10.8256C 7.27712 10.7996 7.25948 10.7733 7.24183 10.7461L 11.7647 2.7066C 11.8431 2.7334 11.9477 2.7334 12.0261 2.7334C 12.1046 2.7334 12.2092 2.7334 12.2876 2.7066L 16.8366 10.7997C 16.7582 10.9337 16.6797 11.0677 16.6274 11.2285ZM 18.5882 10.4781L 21.5948 7.36951C 21.4902 7.15515 21.4118 6.91394 21.4379 6.69958C 21.4379 6.43158 21.5163 6.16357 21.6471 5.94922L 18.5882 2.57263C 18.3791 2.67981 18.1438 2.76019 17.9085 2.76019C 17.3072 2.76019 16.7843 2.33142 16.6275 1.74188L 13.3333 1.74188C 13.2811 1.98309 13.1503 2.19745 12.9673 2.35822L 17.4902 10.3709C 17.6209 10.3173 17.7516 10.2905 17.9085 10.2905C 18.1699 10.2905 18.3791 10.3709 18.5882 10.4781Z"/>
<path id="path1_fill" d="M 10.0156 13.5625C 9.59375 14.0677 8.9974 14.4609 8.22656 14.7422C 7.45573 15.0182 6.60156 15.1562 5.66406 15.1562C 4.67969 15.1562 3.8151 14.9427 3.07031 14.5156C 2.33073 14.0833 1.75781 13.4583 1.35156 12.6406C 0.950521 11.8229 0.744792 10.862 0.734375 9.75781L 0.734375 8.98438C 0.734375 7.84896 0.924479 6.86719 1.30469 6.03906C 1.6901 5.20573 2.24219 4.57031 2.96094 4.13281C 3.6849 3.6901 4.53125 3.46875 5.5 3.46875C 6.84896 3.46875 7.90365 3.79167 8.66406 4.4375C 9.42448 5.07812 9.875 6.01302 10.0156 7.24219L 7.73438 7.24219C 7.63021 6.59115 7.39844 6.11458 7.03906 5.8125C 6.6849 5.51042 6.19531 5.35938 5.57031 5.35938C 4.77344 5.35938 4.16667 5.65885 3.75 6.25781C 3.33333 6.85677 3.1224 7.7474 3.11719 8.92969L 3.11719 9.65625C 3.11719 10.849 3.34375 11.75 3.79688 12.3594C 4.25 12.9688 4.91406 13.2734 5.78906 13.2734C 6.66927 13.2734 7.29688 13.0859 7.67188 12.7109L 7.67188 10.75L 5.53906 10.75L 5.53906 9.02344L 10.0156 9.02344L 10.0156 13.5625ZM 16.5234 8.66406C 16.2161 8.6224 15.9453 8.60156 15.7109 8.60156C 14.8568 8.60156 14.2969 8.89062 14.0312 9.46875L 14.0312 15L 11.7734 15L 11.7734 6.54688L 13.9062 6.54688L 13.9688 7.55469C 14.4219 6.77865 15.0495 6.39062 15.8516 6.39062C 16.1016 6.39062 16.3359 6.42448 16.5547 6.49219L 16.5234 8.66406ZM 22.2812 15C 22.1771 14.7969 22.1016 14.5443 22.0547 14.2422C 21.5078 14.8516 20.7969 15.1562 19.9219 15.1562C 19.0938 15.1562 18.4062 14.9167 17.8594 14.4375C 17.3177 13.9583 17.0469 13.3542 17.0469 12.625C 17.0469 11.7292 17.3776 11.0417 18.0391 10.5625C 18.7057 10.0833 19.6667 9.84115 20.9219 9.83594L 21.9609 9.83594L 21.9609 9.35156C 21.9609 8.96094 21.8594 8.64844 21.6562 8.41406C 21.4583 8.17969 21.1432 8.0625 20.7109 8.0625C 20.3307 8.0625 20.0312 8.15365 19.8125 8.33594C 19.599 8.51823 19.4922 8.76823 19.4922 9.08594L 17.2344 9.08594C 17.2344 8.59635 17.3854 8.14323 17.6875 7.72656C 17.9896 7.3099 18.4167 6.98438 18.9688 6.75C 19.5208 6.51042 20.1406 6.39062 20.8281 6.39062C 21.8698 6.39062 22.6953 6.65365 23.3047 7.17969C 23.9193 7.70052 24.2266 8.4349 24.2266 9.38281L 24.2266 13.0469C 24.2318 13.849 24.3438 14.4557 24.5625 14.8672L 24.5625 15L 22.2812 15ZM 20.4141 13.4297C 20.7474 13.4297 21.0547 13.3568 21.3359 13.2109C 21.6172 13.0599 21.8255 12.8594 21.9609 12.6094L 21.9609 11.1562L 21.1172 11.1562C 19.987 11.1562 19.3854 11.5469 19.3125 12.3281L 19.3047 12.4609C 19.3047 12.7422 19.4036 12.974 19.6016 13.1562C 19.7995 13.3385 20.0703 13.4297 20.4141 13.4297ZM 33.5703 10.8516C 33.5703 12.1536 33.2734 13.1979 32.6797 13.9844C 32.0911 14.7656 31.2943 15.1562 30.2891 15.1562C 29.4349 15.1562 28.7448 14.8594 28.2188 14.2656L 28.2188 18.25L 25.9609 18.25L 25.9609 6.54688L 28.0547 6.54688L 28.1328 7.375C 28.6797 6.71875 29.3932 6.39062 30.2734 6.39062C 31.3151 6.39062 32.125 6.77604 32.7031 7.54688C 33.2812 8.31771 33.5703 9.38021 33.5703 10.7344L 33.5703 10.8516ZM 31.3125 10.6875C 31.3125 9.90104 31.1719 9.29427 30.8906 8.86719C 30.6146 8.4401 30.2109 8.22656 29.6797 8.22656C 28.9714 8.22656 28.4844 8.4974 28.2188 9.03906L 28.2188 12.5C 28.4948 13.0573 28.987 13.3359 29.6953 13.3359C 30.7734 13.3359 31.3125 12.4531 31.3125 10.6875ZM 37.1797 7.46875C 37.7786 6.75 38.5312 6.39062 39.4375 6.39062C 41.2708 6.39062 42.2005 7.45573 42.2266 9.58594L 42.2266 15L 39.9688 15L 39.9688 9.64844C 39.9688 9.16406 39.8646 8.80729 39.6562 8.57812C 39.4479 8.34375 39.1016 8.22656 38.6172 8.22656C 37.9557 8.22656 37.4766 8.48177 37.1797 8.99219L 37.1797 15L 34.9219 15L 34.9219 3L 37.1797 3L 37.1797 7.46875ZM 53.4062 9.57031C 53.4062 10.6328 53.2344 11.5573 52.8906 12.3438C 52.5469 13.125 52.0703 13.7526 51.4609 14.2266L 53.3516 15.7109L 51.8594 17.0312L 49.4375 15.0859C 49.1615 15.1328 48.875 15.1562 48.5781 15.1562C 47.6354 15.1562 46.7943 14.9297 46.0547 14.4766C 45.3151 14.0234 44.7422 13.3776 44.3359 12.5391C 43.9297 11.6953 43.724 10.7266 43.7188 9.63281L 43.7188 9.07031C 43.7188 7.95052 43.9193 6.96615 44.3203 6.11719C 44.7266 5.26302 45.2969 4.60938 46.0312 4.15625C 46.7708 3.69792 47.6146 3.46875 48.5625 3.46875C 49.5104 3.46875 50.3516 3.69792 51.0859 4.15625C 51.8255 4.60938 52.3958 5.26302 52.7969 6.11719C 53.2031 6.96615 53.4062 7.94792 53.4062 9.0625L 53.4062 9.57031ZM 51.0312 9.05469C 51.0312 7.86198 50.8177 6.95573 50.3906 6.33594C 49.9635 5.71615 49.3542 5.40625 48.5625 5.40625C 47.776 5.40625 47.1693 5.71354 46.7422 6.32812C 46.3151 6.9375 46.099 7.83333 46.0938 9.01562L 46.0938 9.57031C 46.0938 10.7318 46.3073 11.6328 46.7344 12.2734C 47.1615 12.9141 47.776 13.2344 48.5781 13.2344C 49.3646 13.2344 49.9688 12.9271 50.3906 12.3125C 50.8125 11.6927 51.026 10.7917 51.0312 9.60938L 51.0312 9.05469ZM 57.4688 13.1172L 62.4453 13.1172L 62.4453 15L 55.125 15L 55.125 3.625L 57.4688 3.625L 57.4688 13.1172ZM 68.0391 11.0391L 63.6406 11.0391L 63.6406 9.21875L 68.0391 9.21875L 68.0391 11.0391ZM 74.2109 10.8359L 72.3438 10.8359L 72.3438 15L 70 15L 70 3.625L 74.2266 3.625C 75.5703 3.625 76.6068 3.92448 77.3359 4.52344C 78.0651 5.1224 78.4297 5.96875 78.4297 7.0625C 78.4297 7.83854 78.2604 8.48698 77.9219 9.00781C 77.5885 9.52344 77.0807 9.9349 76.3984 10.2422L 78.8594 14.8906L 78.8594 15L 76.3438 15L 74.2109 10.8359ZM 72.3438 8.9375L 74.2344 8.9375C 74.8229 8.9375 75.2786 8.78906 75.6016 8.49219C 75.9245 8.1901 76.0859 7.77604 76.0859 7.25C 76.0859 6.71354 75.9323 6.29167 75.625 5.98438C 75.3229 5.67708 74.8568 5.52344 74.2266 5.52344L 72.3438 5.52344L 72.3438 8.9375ZM 85.1328 14.1406C 84.5755 14.8177 83.8047 15.1562 82.8203 15.1562C 81.9141 15.1562 81.2214 14.8958 80.7422 14.375C 80.2682 13.8542 80.026 13.0911 80.0156 12.0859L 80.0156 6.54688L 82.2734 6.54688L 82.2734 12.0078C 82.2734 12.888 82.6745 13.3281 83.4766 13.3281C 84.2422 13.3281 84.7682 13.0625 85.0547 12.5312L 85.0547 6.54688L 87.3203 6.54688L 87.3203 15L 85.1953 15L 85.1328 14.1406ZM 96.6406 10.8516C 96.6406 12.2057 96.3516 13.263 95.7734 14.0234C 95.1953 14.7786 94.388 15.1562 93.3516 15.1562C 92.4349 15.1562 91.7031 14.8047 91.1562 14.1016L 91.0547 15L 89.0234 15L 89.0234 3L 91.2812 3L 91.2812 7.30469C 91.8021 6.69531 92.487 6.39062 93.3359 6.39062C 94.3672 6.39062 95.1745 6.77083 95.7578 7.53125C 96.3464 8.28646 96.6406 9.35156 96.6406 10.7266L 96.6406 10.8516ZM 94.3828 10.6875C 94.3828 9.83333 94.2474 9.21094 93.9766 8.82031C 93.7057 8.42448 93.3021 8.22656 92.7656 8.22656C 92.0469 8.22656 91.5521 8.52083 91.2812 9.10938L 91.2812 12.4453C 91.5573 13.0391 92.0573 13.3359 92.7812 13.3359C 93.5104 13.3359 93.9896 12.9766 94.2188 12.2578C 94.3281 11.9141 94.3828 11.3906 94.3828 10.6875ZM 101.102 11.8047L 102.664 6.54688L 105.086 6.54688L 101.688 16.3125L 101.5 16.7578C 100.995 17.862 100.161 18.4141 99 18.4141C 98.6719 18.4141 98.3385 18.3646 98 18.2656L 98 16.5547L 98.3438 16.5625C 98.7708 16.5625 99.0885 16.4974 99.2969 16.3672C 99.5104 16.237 99.6771 16.0208 99.7969 15.7188L 100.062 15.0234L 97.1016 6.54688L 99.5312 6.54688L 101.102 11.8047Z"/>
</defs>
</svg>
