<svg width="1276" height="600" viewBox="0 0 1276 600" version="1.1" xmlns="http://www.w3.org/2000/svg" xmlns:xlink="http://www.w3.org/1999/xlink">
<title>Group</title>
<desc>Created using Figma</desc>
<g id="Canvas" transform="translate(254 926)">
<g id="Group" opacity="0.45">
<g id="Rectangle">
<use xlink:href="#path0_fill" transform="translate(-258 -926)" fill="#D74B4B"/>
</g>
<g id="Shape Copy 2" opacity="0.76">
<use xlink:href="#path1_fill" transform="matrix(0.956305 -0.292372 -0.292372 -0.956305 907.072 -366.284)" fill="#FFFFFF"/>
</g>
<g id="Shape Copy 2" opacity="0.71">
<use xlink:href="#path2_fill" transform="matrix(0.927184 -0.374607 0.374607 0.927184 961.239 -567.847)" fill="#FFFFFF"/>
</g>
<g id="Shape Copy 2" opacity="0.82">
<use xlink:href="#path3_fill" transform="matrix(0.374607 0.927184 0.927184 -0.374607 802.208 -870.074)" fill="#FFFFFF"/>
</g>
<g id="Shape Copy 2" opacity="0.94">
<use xlink:href="#path4_fill" transform="matrix(-0.987688 0.156434 0.156434 0.987688 493.854 -410.451)" fill="#FFFFFF"/>
</g>
<g id="Shape Copy 2">
<use xlink:href="#path5_fill" transform="matrix(0.990268 -0.139173 -0.139173 -0.990268 704.787 -576.369)" fill="#FFFFFF"/>
</g>
<g id="Shape Copy 2" opacity="0.95">
<use xlink:href="#path6_fill" transform="matrix(0.970296 -0.241922 0.241922 0.970296 596.968 -784.22)" fill="#FFFFFF"/>
</g>
<g id="Shape Copy 2" opacity="0.91">
<use xlink:href="#path7_fill" transform="matrix(0.642788 0.766044 -0.766044 0.642788 239.491 -394.012)" fill="#FFFFFF"/>
</g>
<g id="Shape Copy 2" opacity="0.92">
<use xlink:href="#path8_fill" transform="matrix(0.93358 -0.358368 -0.358368 -0.93358 113.458 -671.912)" fill="#FFFFFF"/>
</g>
<g id="Shape Copy 2" opacity="0.98">
<use xlink:href="#path9_fill" transform="matrix(-0.996195 0.0871557 -0.0871557 -0.996195 180.272 -839.015)" fill="#FFFFFF"/>
</g>
<g id="Shape Copy 2" opacity="0.73">
<use xlink:href="#path10_fill" transform="matrix(0.0697565 -0.997564 -0.997564 -0.0697565 -87.7642 -348.492)" fill="#FFFFFF"/>
</g>
<g id="Shape Copy 2" opacity="0.86">
<use xlink:href="#path11_fill" transform="matrix(0.882948 0.469472 0.469472 -0.882948 -189.957 -638.488)" fill="#FFFFFF"/>
</g>
<g id="Shape Copy 2" opacity="0.85">
<use xlink:href="#path12_fill" transform="matrix(-0.529919 0.848048 -0.848048 -0.529919 -55.4362 -773.382)" fill="#FFFFFF"/>
</g>
</g>
</g>
<defs>
<path id="path0_fill" fill-rule="evenodd" d="M 0 0L 1280 0L 1280 600L 0 600L 0 0Z"/>
<path id="path1_fill" fill-rule="evenodd" d="M 33.1699 7.26093C 32.8649 7.26093 32.598 7.33429 32.3312 7.44428L 27.8323 2.75036C 27.9848 2.49366 28.061 2.20027 28.061 1.87024C 28.061 0.843449 27.1841 -1.32074e-05 26.1166 -4.37804e-06C 25.2396 9.59964e-06 24.4771 0.550081 24.2484 1.35684L 19.4444 1.35682C 19.2157 0.586738 18.4532 -1.09226e-05 17.5762 3.05509e-06C 16.6993 -8.12188e-07 15.9368 0.550071 15.7081 1.35683L 10.9804 1.35684C 10.7516 0.586754 9.98909 5.37337e-06 9.11221 1.50609e-06C 8.04469 -1.88487e-05 7.16776 0.843425 7.16774 1.87023C 7.16776 2.16362 7.24399 2.45698 7.3584 2.71368L 2.78322 7.44428C 2.51631 7.33429 2.24944 7.26094 1.94443 7.26095C 0.876905 7.26093 -1.86131e-05 8.10437 1.61217e-05 9.13116C -7.51163e-06 10.158 0.876885 11.0014 1.94447 11.0014C 2.24948 11.0014 2.55448 10.9281 2.82135 10.7814L 7.32025 15.1086C 7.20587 15.3653 7.12963 15.622 7.12963 15.952C 7.12961 16.9788 8.00656 17.8223 9.07408 17.8223C 9.3791 17.8223 9.68409 17.7489 9.91284 17.6389L 15.7843 23.323C 15.6699 23.5797 15.5937 23.8364 15.5937 24.1297C 15.5937 25.1566 16.4706 26 17.5381 26C 18.6057 26 19.4825 25.1566 19.4826 24.1298C 19.4826 23.8364 19.4063 23.5797 19.292 23.323L 25.1634 17.6389C 25.4303 17.7856 25.7353 17.859 26.0403 17.8589C 27.1078 17.859 27.9848 17.0155 27.9847 15.9887C 27.9847 15.6587 27.9085 15.3653 27.756 15.1086L 32.1786 10.8181C 32.4455 10.9648 32.7506 11.0381 33.0556 11.0381C 34.1231 11.0381 35 10.1946 35 9.16786C 35 8.14106 34.2756 7.26093 33.1699 7.26093ZM 9.6841 14.1552C 9.49347 14.1185 9.30285 14.0818 9.1122 14.0818C 8.73093 14.0818 8.38781 14.1918 8.08281 14.3752L 3.66015 10.0846C 3.85077 9.79126 3.92704 9.46121 3.92704 9.13117C 3.92701 8.76448 3.81265 8.39774 3.622 8.10439L 8.0828 3.48378C 8.38783 3.66713 8.73095 3.77716 9.11224 3.77716C 10.0273 3.77714 10.7516 3.19042 10.9804 2.38366L 15.7081 2.38365C 15.8225 2.71369 15.975 3.00706 16.2418 3.22711L 9.6841 14.1552ZM 17.5762 22.2595C 17.9575 22.2595 18.3006 22.3696 18.6057 22.5529L 24.439 16.9055C 24.3246 16.7588 24.2484 16.6121 24.2102 16.4288L 10.9804 16.4288C 10.9423 16.6121 10.866 16.7955 10.7516 16.9422L 16.5468 22.5529C 16.8518 22.3696 17.195 22.2595 17.5762 22.2595ZM 24.2484 15.3653L 10.9423 15.3653C 10.8789 15.152 10.7629 14.9894 10.6381 14.8143L 10.6062 14.7693C 10.5912 14.7482 10.5761 14.7269 10.561 14.7052L 17.1569 3.70378C 17.2122 3.72155 17.2766 3.7307 17.3412 3.73542C 17.41 3.74045 17.4791 3.74048 17.5382 3.74046C 17.6525 3.74047 17.805 3.74047 17.9194 3.70381L 24.5534 14.7786C 24.5199 14.8322 24.4864 14.8858 24.454 14.9403C 24.3754 15.0722 24.3024 15.2096 24.2484 15.3653ZM 27.1079 14.3385L 31.4924 10.0846C 31.3399 9.79127 31.2255 9.46123 31.2636 9.16787C 31.2636 8.80113 31.378 8.43443 31.5686 8.14106L 27.1078 3.52048C 26.8028 3.66714 26.4597 3.77715 26.1165 3.77717C 25.2397 3.77717 24.4771 3.19042 24.2483 2.38365L 19.4444 2.38366C 19.3682 2.71369 19.1775 3.00706 18.9107 3.22708L 25.5065 14.1918C 25.6266 14.1456 25.7467 14.114 25.8763 14.0969C 25.9524 14.0869 26.0319 14.0818 26.1166 14.0818C 26.4978 14.0818 26.8028 14.1918 27.1079 14.3385Z"/>
<path id="path2_fill" fill-rule="evenodd" d="M 53.0719 11.7292C 52.5839 11.7292 52.1569 11.8477 51.7299 12.0254L 44.5316 4.4429C 44.7756 4.02823 44.8976 3.5543 44.8976 3.02116C 44.8976 1.36249 43.4946 1.21524e-05 41.7865 -3.01155e-06C 40.3834 -2.64711e-05 39.1634 0.888582 38.7974 2.19184L 31.1111 2.19184C 30.7451 0.947831 29.5251 -1.05464e-05 28.122 2.25848e-05C 26.7189 -8.74816e-07 25.4989 0.888551 25.1329 2.1918L 17.5686 2.19179C 17.2026 0.947804 15.9826 -4.15936e-06 14.5795 -2.76189e-05C 12.8714 1.38079e-05 11.4684 1.36246 11.4684 3.02114C 11.4684 3.49505 11.5904 3.969 11.7734 4.38366L 4.45314 12.0254C 4.02616 11.8477 3.59914 11.7292 3.1111 11.7292C 1.40303 11.7292 1.63178e-05 13.0917 2.26605e-06 14.7503C -1.17857e-05 16.409 1.40304 17.7715 3.11109 17.7715C 3.59913 17.7715 4.08713 17.653 4.51419 17.4161L 11.7124 24.4062C 11.5294 24.8209 11.4074 25.2355 11.4074 25.7687C 11.4074 27.4274 12.8105 28.7898 14.5185 28.7899C 15.0065 28.7899 15.4946 28.6714 15.8606 28.4936L 25.2549 37.6756C 25.0719 38.0903 24.9499 38.5049 24.9499 38.9789C 24.9499 40.6375 26.3529 42 28.061 42C 29.7691 42 31.1721 40.6375 31.1721 38.9788C 31.1721 38.5049 31.0501 38.0903 30.8671 37.6756L 40.2614 28.4937C 40.6885 28.7306 41.1765 28.8491 41.6645 28.8491C 43.3725 28.849 44.7756 27.4866 44.7756 25.8279C 44.7756 25.2948 44.6536 24.8209 44.4096 24.4062L 51.4858 17.4753C 51.9128 17.7123 52.4009 17.8307 52.8889 17.8307C 54.5969 17.8308 56 16.4683 56 14.8096C 56 13.1509 54.841 11.7292 53.0719 11.7292ZM 15.4945 22.866C 15.1895 22.8067 14.8845 22.7475 14.5795 22.7475C 13.9695 22.7475 13.4205 22.9252 12.9324 23.2214L 5.85618 16.2905C 6.1612 15.8166 6.2832 15.2834 6.28322 14.7503C 6.28321 14.1579 6.10018 13.5656 5.79516 13.0917L 12.9324 5.62758C 13.4205 5.92384 13.9695 6.10155 14.5795 6.10154C 16.0436 6.10153 17.2026 5.1537 17.5686 3.85047L 25.1328 3.85046C 25.3159 4.38363 25.5599 4.8575 25.9869 5.21295L 15.4945 22.866ZM 28.122 35.9577C 28.732 35.9577 29.2811 36.1354 29.7691 36.4316L 39.1024 27.3089C 38.9194 27.0719 38.7974 26.835 38.7364 26.5388L 17.5686 26.5388C 17.5076 26.8349 17.3856 27.1312 17.2026 27.3681L 26.4749 36.4316C 26.963 36.1354 27.512 35.9577 28.122 35.9577ZM 38.7974 24.8209L 17.5076 24.8209C 17.4494 24.623 17.3634 24.4521 17.2629 24.2888C 17.1883 24.1678 17.1058 24.051 17.0207 23.9305C 16.98 23.873 16.9388 23.8147 16.8976 23.7546L 27.451 5.98309C 27.558 6.01775 27.6858 6.03214 27.8101 6.03812C 27.8984 6.04235 27.985 6.04237 28.061 6.04235C 28.244 6.04236 28.488 6.04232 28.6711 5.9831L 39.2854 23.8731C 39.1024 24.1693 38.9194 24.4654 38.7974 24.8209ZM 43.3725 23.1622L 50.3878 16.2905C 50.1438 15.8166 49.9608 15.2835 50.0218 14.8095C 50.0218 14.2172 50.2048 13.6248 50.5098 13.1509L 43.3725 5.68688C 42.8846 5.9238 42.3355 6.10154 41.7865 6.1015C 40.3834 6.10154 39.1634 5.15373 38.7974 3.85045L 31.1111 3.85046C 30.9891 4.3836 30.6841 4.85751 30.2571 5.21292L 40.8104 22.9252C 41.1155 22.8067 41.4205 22.7475 41.7865 22.7475C 42.3965 22.7475 42.8845 22.9253 43.3725 23.1622Z"/>
<path id="path3_fill" fill-rule="evenodd" d="M 50.2288 11.1706C 49.7669 11.1707 49.3627 11.2835 48.9586 11.4528L 42.146 4.23131C 42.3769 3.83638 42.4924 3.38502 42.4924 2.87729C 42.4924 1.29759 41.1645 -1.71564e-05 39.5479 2.08461e-05C 38.2201 2.17867e-05 37.0653 0.846255 36.719 2.08745L 29.4444 2.08744C 29.0981 0.902647 27.9434 7.2455e-06 26.6155 8.18608e-06C 25.2876 9.12667e-06 24.1329 0.846298 23.7865 2.08744L 16.6274 2.08744C 16.281 0.902653 15.1263 1.37151e-05 13.7985 1.46557e-05C 12.1819 -3.93253e-06 10.854 1.29761 10.854 2.87728C 10.854 3.3286 10.9695 3.77994 11.1427 4.17491L 4.2146 11.4528C 3.81048 11.2835 3.40634 11.1707 2.94442 11.1707C 1.32786 11.1707 -2.35709e-05 12.4683 1.93941e-08 14.0479C -3.29811e-05 15.6276 1.32787 16.9252 2.94443 16.9253C 3.40635 16.9253 3.86821 16.8124 4.27235 16.5868L 11.085 23.244C 10.9118 23.6389 10.7963 24.0339 10.7963 24.5416C 10.7963 26.1213 12.1242 27.4189 13.7407 27.4189C 14.2026 27.4189 14.6645 27.3061 15.0109 27.1368L 23.9019 35.8815C 23.7287 36.2764 23.6133 36.6714 23.6133 37.1227C 23.6133 38.7024 24.9412 40 26.5577 40C 28.1743 40 29.5022 38.7024 29.5022 37.1227C 29.5022 36.6713 29.3867 36.2764 29.2135 35.8815L 38.1046 27.1368C 38.5087 27.3625 38.9706 27.4753 39.4324 27.4753C 41.0491 27.4753 42.3769 26.1777 42.3769 24.598C 42.3769 24.0903 42.2614 23.6389 42.0305 23.244L 48.7277 16.6432C 49.1318 16.8688 49.5937 16.9817 50.0556 16.9817C 51.6721 16.9817 53 15.6841 53 14.1044C 53 12.5247 51.9031 11.1706 50.2288 11.1706ZM 14.6645 21.7771C 14.3758 21.7207 14.0871 21.6643 13.7984 21.6643C 13.2211 21.6643 12.7015 21.8336 12.2396 22.1157L 5.54243 15.5148C 5.83115 15.0635 5.94659 14.5557 5.94657 14.048C 5.94658 13.4838 5.77341 12.9196 5.48474 12.4683L 12.2396 5.35966C 12.7015 5.64175 13.2211 5.811 13.7985 5.81096C 15.184 5.81102 16.281 4.90834 16.6274 3.66712L 23.7864 3.66714C 23.9596 4.17487 24.1906 4.62623 24.5948 4.96475L 14.6645 21.7771ZM 26.6155 34.2454C 27.1928 34.2454 27.7124 34.4147 28.1743 34.6968L 37.0076 26.0084C 36.8344 25.7828 36.719 25.5571 36.6612 25.275L 16.6274 25.275C 16.5697 25.5571 16.4542 25.8392 16.281 26.0649L 25.0567 34.6967C 25.5185 34.4146 26.0381 34.2454 26.6155 34.2454ZM 36.719 23.6389L 16.5697 23.6389C 16.4738 23.3108 16.2981 23.0605 16.1089 22.7911C 16.0704 22.7362 16.0314 22.6807 15.9924 22.6234L 25.9804 5.69817C 26.1533 5.75451 26.3838 5.75461 26.5569 5.75456L 26.5578 5.75462C 26.7309 5.75462 26.9619 5.7546 27.1351 5.69817L 37.1808 22.7362L 37.1802 22.7371C 37.0072 23.0189 36.8343 23.3008 36.719 23.6389ZM 41.049 22.0592L 47.6884 15.5148C 47.4575 15.0635 47.2843 14.5557 47.342 14.1043C 47.342 13.5402 47.5152 12.976 47.8039 12.5247L 41.049 5.41608C 40.5871 5.64172 40.0675 5.81097 39.5479 5.81099C 38.22 5.81099 37.0653 4.90827 36.7189 3.66715L 29.4445 3.66711C 29.3289 4.17485 29.0403 4.62621 28.6362 4.96473L 38.6241 21.8336C 38.9128 21.7207 39.2015 21.6643 39.5479 21.6643C 40.1252 21.6643 40.5872 21.8336 41.049 22.0592Z"/>
<path id="path4_fill" fill-rule="evenodd" d="M 51.1765 11.4499C 50.7059 11.4499 50.2941 11.5656 49.8824 11.7391L 42.9412 4.33711C 43.1765 3.93231 43.2941 3.46967 43.2941 2.94922C 43.2941 1.33005 41.9412 -8.94254e-06 40.2941 -1.37473e-05C 38.9412 -3.5726e-06 37.7647 0.867413 37.4118 2.13964L 30 2.13965C 29.6471 0.925234 28.4706 1.70197e-05 27.1176 -7.72144e-06C 25.7647 -2.32074e-06 24.5882 0.867419 24.2353 2.13965L 16.9412 2.13965C 16.5882 0.925241 15.4118 -1.09521e-05 14.0588 -5.55138e-06C 12.4117 -5.58213e-06 11.0588 1.33004 11.0588 2.94921C 11.0588 3.41185 11.1765 3.87448 11.3529 4.27926L 4.29411 11.7391C 3.88235 11.5656 3.47058 11.4499 3 11.4499C 1.35295 11.4499 -1.04747e-05 12.78 -1.11428e-05 14.3991C -7.03682e-06 16.0183 1.35295 17.3484 3 17.3484C 3.4706 17.3484 3.94118 17.2327 4.35294 17.0014L 11.2941 23.8251C 11.1176 24.2299 11 24.6347 11 25.1551C 11 26.7743 12.3529 28.1044 14 28.1044C 14.4706 28.1044 14.9412 27.9887 15.2941 27.8152L 24.3529 36.7786C 24.1765 37.1834 24.0588 37.5882 24.0588 38.0508C 24.0588 39.67 25.4118 41 27.0588 41C 28.7059 41 30.0588 39.67 30.0588 38.0508C 30.0588 37.5881 29.9412 37.1833 29.7647 36.7786L 38.8235 27.8152C 39.2353 28.0465 39.7059 28.1622 40.1765 28.1622C 41.8235 28.1622 43.1765 26.8322 43.1765 25.213C 43.1765 24.6925 43.0588 24.2299 42.8235 23.8251L 49.647 17.0592C 50.0588 17.2906 50.5294 17.4062 51 17.4062C 52.6471 17.4062 54 16.0762 54 14.457C 54 12.8378 52.8824 11.4499 51.1765 11.4499ZM 14.9412 22.3216C 14.6471 22.2637 14.3529 22.2059 14.0588 22.2059C 13.4706 22.2059 12.9412 22.3794 12.4706 22.6686L 5.64707 15.9027C 5.94117 15.4401 6.05883 14.9196 6.05884 14.3991C 6.05883 13.8209 5.88236 13.2426 5.58823 12.78L 12.4706 5.49367C 12.9412 5.7828 13.4706 5.95627 14.0588 5.95629C 15.4706 5.95627 16.5882 5.03102 16.9412 3.75883L 24.2353 3.75883C 24.4118 4.27925 24.647 4.74189 25.0588 5.08885L 14.9412 22.3216ZM 27.1176 35.1016C 27.7059 35.1015 28.2353 35.275 28.7059 35.5642L 37.7059 26.6587C 37.5294 26.4274 37.4117 26.196 37.3529 25.9069L 16.9412 25.9069C 16.8824 26.1961 16.7647 26.4852 16.5882 26.7165L 25.5294 35.5642C 26 35.275 26.5294 35.1016 27.1176 35.1016ZM 37.4118 24.2299L 16.8824 24.2299C 16.7846 23.8935 16.6056 23.637 16.4128 23.3608C 16.3736 23.3046 16.3339 23.2476 16.2941 23.189L 26.4706 5.84063C 26.6471 5.89846 26.8823 5.89845 27.0588 5.89846C 27.2353 5.89848 27.4706 5.89847 27.6471 5.84064L 37.8824 23.3047C 37.7059 23.5938 37.5294 23.8829 37.4118 24.2299ZM 41.8235 22.6107L 48.5882 15.9027C 48.3529 15.4401 48.1765 14.9196 48.2353 14.457C 48.2353 13.8787 48.4117 13.3004 48.7059 12.8378L 41.8235 5.55147C 41.3529 5.78278 40.8235 5.95626 40.2941 5.95625C 38.9412 5.95626 37.7647 5.03101 37.4118 3.75879L 30 3.75879C 29.8824 4.27927 29.5882 4.7419 29.1765 5.08884L 39.3529 22.3794C 39.6471 22.2637 39.9412 22.2059 40.2941 22.2059C 40.8823 22.2059 41.3529 22.3794 41.8235 22.6107Z"/>
<path id="path5_fill" fill-rule="evenodd" d="M 47.3856 10.6121C 46.9499 10.6121 46.5686 10.7193 46.1873 10.8801L 39.7604 4.01977C 39.9782 3.64455 40.0871 3.2158 40.0871 2.73344C 40.0871 1.23275 38.8344 1.76131e-05 37.3094 -1.85281e-05C 36.0567 1.12455e-05 34.9673 0.803971 34.6405 1.98306L 27.7778 1.98309C 27.4509 0.857528 26.3617 -9.74228e-06 25.1089 2.00313e-05C 23.8562 -1.06362e-05 22.7669 0.803949 22.4401 1.98309L 15.6863 1.9831C 15.3595 0.857538 14.2702 3.46272e-08 13.0174 2.98082e-05C 11.4924 -6.33297e-06 10.2397 1.23272 10.2397 2.73341C 10.2396 3.16221 10.3486 3.59098 10.512 3.96617L 3.97601 10.8801C 3.59476 10.7193 3.21352 10.6122 2.77776 10.6121C 1.25273 10.6122 -1.7086e-05 11.8448 -1.53362e-05 13.3456C -2.20808e-05 14.8463 1.2527 16.079 2.77779 16.079C 3.2135 16.079 3.64923 15.9718 4.03051 15.7574L 10.4575 22.0818C 10.2941 22.457 10.1852 22.8322 10.1852 23.3145C 10.1852 24.8152 11.4379 26.0479 12.9629 26.048C 13.3987 26.0479 13.8344 25.9408 14.1612 25.78L 22.549 34.0874C 22.3857 34.4626 22.2767 34.8378 22.2767 35.2666C 22.2767 36.7673 23.5294 38 25.0544 38C 26.5795 38 27.8323 36.7673 27.8322 35.2666C 27.8322 34.8378 27.7233 34.4626 27.5599 34.0874L 35.9477 25.78C 36.329 25.9944 36.7647 26.1015 37.2004 26.1016C 38.7255 26.1015 39.9782 24.8688 39.9782 23.3681C 39.9782 22.8858 39.8693 22.457 39.6514 22.0818L 45.9695 15.811C 46.3508 16.0254 46.7865 16.1326 47.2222 16.1326C 48.7473 16.1326 50 14.8998 50 13.3992C 50 11.8985 48.9652 10.6121 47.3856 10.6121ZM 13.8344 20.6882L 13.8339 20.6881C 13.7233 20.6664 13.6126 20.6447 13.5019 20.6265C 13.3404 20.6 13.1789 20.5811 13.0174 20.5811C 12.4728 20.5811 11.9826 20.7418 11.5469 21.0099L 5.22875 14.739C 5.50108 14.3103 5.61005 13.8279 5.61005 13.3455C 5.61005 12.8096 5.44665 12.2736 5.17431 11.8449L 11.5468 5.09165C 11.9826 5.35966 12.4727 5.52043 13.0174 5.52043C 14.3246 5.52045 15.3595 4.66288 15.6863 3.48379L 22.4401 3.48378C 22.6035 3.9661 22.8214 4.39491 23.2027 4.7165L 13.8344 20.6882ZM 25.1089 32.5331C 25.6536 32.5331 26.1438 32.6939 26.5795 32.9619L 34.9129 24.708C 34.7495 24.4936 34.6405 24.2793 34.5861 24.0113L 15.6863 24.0113C 15.6318 24.2793 15.5229 24.5472 15.3595 24.7616L 23.6384 32.9619C 24.0741 32.6939 24.5643 32.5331 25.1089 32.5331ZM 34.6405 22.457L 15.6319 22.457C 15.5229 22.0818 15.305 21.8139 15.0872 21.4922L 24.5098 5.41331C 24.6732 5.46689 24.8911 5.4669 25.0545 5.46687C 25.2179 5.46689 25.4358 5.46691 25.5991 5.41331L 35.0762 21.5995C 34.9129 21.8674 34.7495 22.1355 34.6405 22.457ZM 38.7255 20.9562L 44.9891 14.739C 44.7713 14.3103 44.6079 13.8279 44.6623 13.3992C 44.6624 12.8632 44.8257 12.3272 45.0981 11.8984L 38.7255 5.14526C 38.2898 5.35967 37.7996 5.52045 37.3094 5.52044C 36.0567 5.5204 34.9673 4.66287 34.6406 3.48374L 27.7778 3.48377C 27.6688 3.96616 27.3965 4.39489 27.0153 4.71646L 36.4379 20.7419C 36.7103 20.6347 36.9826 20.5811 37.3094 20.5811C 37.8541 20.5811 38.2898 20.7418 38.7255 20.9562Z"/>
<path id="path6_fill" fill-rule="evenodd" d="M 40.7516 8.93654C 40.3769 8.93653 40.049 9.02681 39.7212 9.16222L 34.1939 3.38508C 34.3813 3.06909 34.4749 2.70804 34.4749 2.30181C 34.4749 1.03807 33.3976 2.77006e-05 32.086 -1.60239e-05C 31.0087 -1.55194e-05 30.0719 0.676995 29.7909 1.66993L 23.8889 1.66998C 23.6078 0.722148 22.671 3.4558e-06 21.5937 -1.08054e-05C 20.5164 -2.50665e-05 19.5795 0.676985 19.2985 1.66992L 13.4902 1.66993C 13.2091 0.722153 12.2723 8.67894e-06 11.195 -5.58223e-06C 9.88342 2.46812e-05 8.8061 1.03806 8.80609 2.30185C 8.80608 2.66291 8.89979 3.02401 9.04031 3.33991L 3.4194 9.16219C 3.09153 9.02678 2.76359 8.93653 2.38888 8.93651C 1.07733 8.93654 3.41306e-06 9.97463 3.43092e-06 11.2384C 3.44878e-06 12.5021 1.07731 13.5402 2.38892 13.5402C 2.76363 13.5402 3.13833 13.45 3.46623 13.2694L 8.99347 18.5952C 8.85292 18.9112 8.75924 19.2271 8.75925 19.6333C 8.75925 20.897 9.83661 21.9351 11.1482 21.9351C 11.5229 21.9351 11.8976 21.8449 12.1787 21.7094L 19.3922 28.7053C 19.2516 29.0212 19.1579 29.3371 19.1579 29.6982C 19.1579 30.9619 20.2353 32 21.5469 32C 22.8584 32 23.9357 30.9619 23.9357 29.6982C 23.9357 29.3371 23.842 29.0211 23.7015 28.7052L 30.915 21.7095C 31.2429 21.89 31.6176 21.9803 31.9924 21.9803C 33.3039 21.9802 34.3813 20.9422 34.3812 19.6784C 34.3812 19.2722 34.2876 18.9112 34.1002 18.5952L 39.5338 13.3145C 39.8616 13.4951 40.2364 13.5854 40.6111 13.5853C 41.9227 13.5854 43 12.5473 43 11.2835C 43 10.0197 42.11 8.93655 40.7516 8.93654ZM 11.8976 17.4217C 11.6634 17.3766 11.4292 17.3314 11.195 17.3314C 10.7266 17.3314 10.305 17.4668 9.9303 17.6925L 4.49679 12.4118C 4.73098 12.0508 4.82465 11.6446 4.82466 11.2383C 4.82466 10.787 4.68413 10.3357 4.44993 9.97463L 9.93029 4.28771C 10.305 4.51337 10.7266 4.64881 11.195 4.64878C 12.3192 4.64878 13.2091 3.92666 13.4903 2.93368L 19.2985 2.93367C 19.439 3.3399 19.6264 3.70095 19.9543 3.97178L 11.8976 17.4217ZM 21.5937 27.3964C 22.0621 27.3963 22.4836 27.5318 22.8584 27.7574L 30.0251 20.8068C 29.8845 20.6262 29.7908 20.4457 29.744 20.22L 13.4902 20.22C 13.4434 20.4457 13.3497 20.6714 13.2092 20.8519L 20.329 27.7574C 20.7037 27.5317 21.1253 27.3963 21.5937 27.3964ZM 29.7909 18.9111L 13.4433 18.9111C 13.3655 18.6486 13.2229 18.4483 13.0694 18.2327C 13.0382 18.1889 13.0066 18.1445 12.975 18.0987L 21.0784 4.55853C 21.219 4.60364 21.4063 4.60367 21.5468 4.60367C 21.6873 4.60367 21.8747 4.60365 22.0153 4.55849L 30.1655 18.1889C 30.025 18.4147 29.8846 18.6403 29.7909 18.9111ZM 33.304 17.6474L 38.6906 12.4118C 38.5033 12.0507 38.3627 11.6446 38.4096 11.2835C 38.4096 10.8322 38.5501 10.3808 38.7843 10.0198L 33.304 4.33288C 32.9292 4.51339 32.5077 4.64877 32.0861 4.64877C 31.0087 4.64881 30.0719 3.92667 29.7909 2.93367L 23.8889 2.93372C 23.7952 3.33993 23.561 3.70098 23.2332 3.97181L 31.3366 17.4669C 31.5708 17.3765 31.805 17.3315 32.0861 17.3315C 32.5545 17.3314 32.9292 17.4668 33.304 17.6474Z"/>
<path id="path7_fill" fill-rule="evenodd" d="M 42.6471 9.49506C 42.2549 9.49506 41.9118 9.59097 41.5686 9.73484L 35.7843 3.59662C 35.9804 3.26093 36.0784 2.8773 36.0784 2.4457C 36.0784 1.10296 34.951 3.57481e-06 33.5784 -4.37466e-06C 32.451 -1.27853e-05 31.4706 0.719341 31.1765 1.77433L 25 1.77433C 24.7059 0.767285 23.7255 -8.23379e-06 22.598 -4.95555e-06C 21.4706 -1.67731e-06 20.4902 0.719329 20.1961 1.77432L 14.1176 1.77433C 13.8235 0.767285 12.8431 -8.24686e-06 11.7157 -4.96862e-06C 10.3431 6.69823e-06 9.21568 1.10296 9.21568 2.44569C 9.21569 2.82934 9.31372 3.21297 9.46078 3.54866L 3.57842 9.73483C 3.2353 9.59097 2.89215 9.49505 2.50001 9.49507C 1.12744 9.49506 3.59524e-06 10.598 6.99928e-06 11.9408C 1.04033e-05 13.2835 1.12745 14.3865 2.49999 14.3864C 2.89215 14.3865 3.28432 14.2905 3.62746 14.0987L 9.41176 19.7574C 9.2647 20.0931 9.16667 20.4288 9.16665 20.8604C 9.16666 22.2031 10.2941 23.3061 11.6667 23.3061C 12.0588 23.3061 12.451 23.2102 12.7451 23.0663L 20.2941 30.4993C 20.1471 30.835 20.049 31.1707 20.049 31.5543C 20.049 32.897 21.1765 34 22.549 34C 23.9216 34 25.049 32.897 25.049 31.5543C 25.049 31.1707 24.951 30.835 24.8039 30.4993L 32.3529 23.0663C 32.6961 23.2581 33.0882 23.354 33.4804 23.354C 34.8529 23.354 35.9804 22.2511 35.9804 20.9083C 35.9804 20.4767 35.8824 20.0931 35.6863 19.7574L 41.3726 14.1467C 41.7157 14.3385 42.1078 14.4344 42.5 14.4344C 43.8726 14.4344 45 13.3315 45 11.9887C 45 10.646 44.0686 9.49507 42.6471 9.49506ZM 12.451 18.5106C 12.2059 18.4626 11.9608 18.4147 11.7157 18.4147C 11.2255 18.4147 10.7843 18.5585 10.3922 18.7983L 4.7059 13.1876C 4.95098 12.8039 5.04903 12.3724 5.04903 11.9408C 5.04902 11.4612 4.90196 10.9817 4.65686 10.598L 10.3922 4.55573C 10.7843 4.79549 11.2255 4.93937 11.7157 4.93935C 12.8922 4.93936 13.8235 4.17209 14.1176 3.11707L 20.1961 3.11706C 20.3431 3.54866 20.5392 3.93231 20.8824 4.22004L 12.451 18.5106ZM 22.598 29.1086C 23.0883 29.1086 23.5294 29.2525 23.9216 29.4922L 31.4216 22.1072C 31.2745 21.9154 31.1765 21.7235 31.1275 21.4838L 14.1177 21.4838C 14.0686 21.7236 13.9706 21.9633 13.8235 22.1552L 21.2745 29.4923C 21.6667 29.2525 22.1078 29.1086 22.598 29.1086ZM 31.1765 20.0931L 14.0686 20.0931C 13.9872 19.8142 13.838 19.6015 13.6775 19.3725L 13.6759 19.3702C 13.6437 19.3243 13.6111 19.2778 13.5784 19.2299L 22.0588 4.84344C 22.2059 4.89139 22.402 4.89139 22.549 4.89138C 22.6961 4.89139 22.8922 4.89139 23.0392 4.84344L 31.5686 19.3258C 31.4216 19.5656 31.2745 19.8053 31.1765 20.0931ZM 34.853 18.7504L 40.4902 13.1876C 40.2941 12.8039 40.1471 12.3723 40.1961 11.9887C 40.1961 11.5092 40.3431 11.0296 40.5882 10.646L 34.8529 4.60366C 34.4608 4.79547 34.0196 4.93935 33.5784 4.93934C 32.451 4.93936 31.4706 4.17205 31.1765 3.11706L 25 3.11706C 24.9019 3.54865 24.6568 3.93229 24.3137 4.22004L 32.7941 18.5585C 33.0392 18.4626 33.2843 18.4147 33.5784 18.4147C 34.0686 18.4147 34.4608 18.5585 34.853 18.7504Z"/>
<path id="path8_fill" fill-rule="evenodd" d="M 37.9085 8.37801C 37.5599 8.37799 37.2549 8.46265 36.9499 8.58954L 31.8083 3.17347C 31.9826 2.87728 32.0697 2.53878 32.0697 2.15796C 32.0697 0.973187 31.0675 -3.34438e-06 29.8475 2.39444e-05C 28.8453 -1.86792e-05 27.9739 0.634717 27.7124 1.56557L 22.2222 1.5656C 21.9608 0.677002 21.0893 -2.82048e-08 20.0871 1.97977e-05C 19.085 -2.28258e-05 18.2135 0.634707 17.9521 1.56556L 12.549 1.56556C 12.2876 0.677013 11.4161 1.34452e-05 10.4139 -2.64442e-05C 9.1939 8.44557e-07 8.19173 0.973226 8.19173 2.158C 8.19172 2.49646 8.27887 2.835 8.40959 3.13119L 3.18082 8.58955C 2.87582 8.46263 2.57082 8.37802 2.22223 8.37801C 1.00218 8.37798 -8.51429e-07 9.35121 6.79856e-06 10.536C 7.3259e-06 11.7207 1.00218 12.6939 2.22221 12.6939C 2.5708 12.6939 2.91938 12.6093 3.22439 12.44L 8.36601 17.433C 8.23528 17.7292 8.14814 18.0254 8.14815 18.4062C 8.14815 19.591 9.15032 20.5642 10.3704 20.5642C 10.7189 20.5641 11.0675 20.4796 11.329 20.3526L 18.0392 26.9111C 17.9085 27.2073 17.8214 27.5035 17.8214 27.842C 17.8214 29.0268 18.8235 30 20.0436 30C 21.2636 30 22.2658 29.0268 22.2658 27.842C 22.2658 27.5036 22.1786 27.2073 22.0479 26.9111L 28.7582 20.3526C 29.0632 20.5218 29.4118 20.6065 29.7603 20.6065C 30.9804 20.6065 31.9826 19.6333 31.9826 18.4485C 31.9826 18.0677 31.8954 17.7292 31.7211 17.433L 36.7756 12.4824C 37.0806 12.6516 37.4292 12.7362 37.7778 12.7362C 38.9978 12.7363 40 11.763 40 10.5783C 40 9.3935 39.1721 8.37799 37.9085 8.37801ZM 11.0675 16.3328C 10.8497 16.2905 10.6318 16.2482 10.4139 16.2482C 9.9782 16.2482 9.58604 16.3751 9.23747 16.5867L 4.18298 11.6361C 4.40086 11.2976 4.48801 10.9168 4.48801 10.536C 4.48801 10.1128 4.35728 9.68968 4.13942 9.35117L 9.23747 4.01975C 9.58604 4.23127 9.97819 4.3582 10.4139 4.35823C 11.4597 4.35823 12.2876 3.68124 12.549 2.75033L 17.9521 2.75033C 18.0828 3.13112 18.2571 3.46963 18.5621 3.72356L 11.0675 16.3328ZM 20.0872 25.6841C 20.5229 25.6841 20.915 25.811 21.2636 26.0226L 27.9303 19.5064C 27.7996 19.3371 27.7124 19.1679 27.6688 18.9563L 12.549 18.9563C 12.5055 19.1678 12.4183 19.3795 12.2876 19.5487L 18.9107 26.0226C 19.2593 25.811 19.6514 25.6841 20.0872 25.6841ZM 27.7124 17.7292L 12.5054 17.7292C 12.433 17.4831 12.3004 17.2954 12.1576 17.0932C 12.1393 17.0673 12.1208 17.0411 12.1023 17.0146C 12.0914 16.9991 12.0806 16.9834 12.0697 16.9676L 19.6078 4.27363C 19.7384 4.31589 19.9124 4.31597 20.0431 4.31596L 20.0436 4.31597L 20.0442 4.31591C 20.1749 4.31596 20.3488 4.31589 20.4793 4.27365L 28.061 17.0522C 27.9303 17.2637 27.7996 17.4753 27.7124 17.7292ZM 30.9804 16.5445L 35.9913 11.6361C 35.817 11.2976 35.6863 10.9168 35.7298 10.5783C 35.7299 10.1552 35.8606 9.73201 36.0784 9.39353L 30.9804 4.06208C 30.6318 4.23132 30.2396 4.35825 29.8475 4.35828C 28.8453 4.35824 27.9739 3.68124 27.7124 2.75034L 22.2222 2.75038C 22.1351 3.13118 21.9172 3.46966 21.6122 3.72357L 29.1503 16.3752C 29.3682 16.2905 29.5861 16.2482 29.8475 16.2482C 30.2832 16.2483 30.6318 16.3752 30.9804 16.5445Z"/>
<path id="path9_fill" fill-rule="evenodd" d="M 39.8039 8.93656C 39.4379 8.93652 39.1177 9.02681 38.7974 9.16219L 33.3987 3.38507C 33.5817 3.06913 33.6732 2.70806 33.6732 2.30185C 33.6732 1.03807 32.6209 2.11832e-05 31.3399 4.24423e-06C 30.2876 2.74836e-05 29.3725 0.677003 29.098 1.66998L 23.3333 1.66993C 23.0588 0.722173 22.1438 2.65719e-05 21.0915 -1.09916e-05C 20.0392 1.22478e-05 19.1242 0.676988 18.8497 1.66996L 13.1765 1.66996C 12.902 0.722137 11.9869 -9.07431e-06 10.9346 1.41651e-05C 9.6536 -2.77391e-06 8.60131 1.03809 8.60131 2.30181C 8.6013 2.66292 8.69282 3.02396 8.83006 3.33992L 3.33987 9.1622C 3.01962 9.02677 2.69935 8.93651 2.33333 8.93653C 1.05228 8.93651 -4.82518e-06 9.9746 2.55281e-06 11.2384C 4.96357e-08 12.5021 1.05229 13.5402 2.33333 13.5402C 2.69935 13.5402 3.06536 13.4499 3.38561 13.2694L 8.78431 18.5952C 8.64707 18.9111 8.55555 19.2271 8.55555 19.6333C 8.55556 20.897 9.60784 21.9351 10.8889 21.9351C 11.2549 21.9351 11.6209 21.8449 11.8954 21.7095L 18.9412 28.7052C 18.8039 29.0212 18.7124 29.3371 18.7124 29.6982C 18.7124 30.9619 19.7647 32 21.0458 32C 22.3268 32 23.3791 30.9619 23.3791 29.6982C 23.3791 29.3371 23.2876 29.0212 23.1503 28.7052L 30.1961 21.7094C 30.5163 21.89 30.8824 21.9802 31.2484 21.9803C 32.5294 21.9802 33.5817 20.9422 33.5817 19.6784C 33.5817 19.2722 33.4902 18.9111 33.3072 18.5952L 38.6144 13.3145C 38.9346 13.4951 39.3007 13.5853 39.6667 13.5854C 40.9477 13.5853 42 12.5473 42 11.2835C 42 10.0198 41.1307 8.93653 39.8039 8.93656ZM 11.6209 17.4217C 11.3922 17.3766 11.1634 17.3314 10.9346 17.3314C 10.4771 17.3314 10.0654 17.4669 9.69935 17.6925L 4.39216 12.4118C 4.62092 12.0508 4.71242 11.6445 4.71243 11.2383C 4.71243 10.787 4.57517 10.3357 4.34642 9.97457L 9.69934 4.28769C 10.0654 4.51339 10.4771 4.64879 10.9346 4.64875C 12.0327 4.64874 12.902 3.92665 13.1765 2.93368L 18.8497 2.93368C 18.9869 3.33989 19.1699 3.70097 19.4902 3.97173L 11.6209 17.4217ZM 21.0915 27.3964C 21.549 27.3964 21.9608 27.5318 22.3268 27.7574L 29.3268 20.8068C 29.1895 20.6262 29.098 20.4457 29.0523 20.22L 13.1765 20.22C 13.1307 20.4457 13.0392 20.6714 12.902 20.8519L 19.8562 27.7574C 20.2222 27.5317 20.634 27.3963 21.0915 27.3964ZM 29.098 18.9111L 13.1307 18.9111C 13.0547 18.6486 12.9155 18.4484 12.7656 18.2328L 12.7124 18.156C 12.6993 18.1371 12.6863 18.118 12.6732 18.0987L 20.5882 4.55856C 20.7255 4.60365 20.9085 4.60367 21.0457 4.60367C 21.183 4.60367 21.366 4.60369 21.5033 4.55853L 29.4641 18.189C 29.3268 18.4146 29.1895 18.6404 29.098 18.9111ZM 32.5294 17.6474L 37.7909 12.4118C 37.6078 12.0508 37.4706 11.6446 37.5163 11.2835C 37.5163 10.8322 37.6536 10.3809 37.8824 10.0198L 32.5294 4.33288C 32.1634 4.51345 31.7516 4.6488 31.3399 4.6488C 30.2876 4.64882 29.3726 3.92667 29.098 2.93376L 23.3333 2.93371C 23.2418 3.33994 23.0131 3.70102 22.6928 3.9718L 30.6078 17.4669C 30.8366 17.3766 31.0654 17.3315 31.3399 17.3315C 31.7974 17.3315 32.1634 17.4669 32.5294 17.6474Z"/>
<path id="path10_fill" fill-rule="evenodd" d="M 52.1242 11.4499C 51.6449 11.4499 51.2255 11.5656 50.8061 11.7391L 43.7364 4.33709C 43.976 3.9323 44.0959 3.46968 44.0959 2.94922C 44.0959 1.33004 42.7179 -3.792e-06 41.0403 3.62446e-06C 39.6623 2.61708e-06 38.4641 0.86742 38.1046 2.13963L 30.5555 2.13963C 30.1961 0.925246 28.9978 -3.3093e-06 27.6198 3.29413e-06C 26.2418 2.28675e-06 25.0436 0.86742 24.6841 2.13963L 17.2549 2.13963C 16.8954 0.92525 15.6972 1.0274e-06 14.3192 2.00152e-08C 12.6416 -2.30313e-06 11.2636 1.33004 11.2636 2.94922C 11.2636 3.41185 11.3834 3.87447 11.5632 4.27927L 4.37363 11.7391C 3.95426 11.5656 3.53486 11.4499 3.05557 11.4499C 1.37799 11.4499 -6.18894e-06 12.78 -8.80816e-06 14.3991C -1.19596e-05 16.0183 1.378 17.3484 3.05555 17.3484C 3.53487 17.3484 4.01417 17.2327 4.43355 17.0014L 11.5033 23.8251C 11.3235 24.2299 11.2037 24.6347 11.2037 25.1551C 11.2037 26.7743 12.5817 28.1044 14.2593 28.1044C 14.7386 28.1044 15.2179 27.9887 15.5773 27.8152L 24.8039 36.7786C 24.6242 37.1834 24.5044 37.5882 24.5044 38.0508C 24.5044 39.67 25.8824 41 27.5599 41C 29.2375 41 30.6155 39.67 30.6155 38.0508C 30.6155 37.5882 30.4956 37.1834 30.3159 36.7786L 39.5425 27.8152C 39.9619 28.0465 40.4412 28.1622 40.9205 28.1622C 42.598 28.1622 43.976 26.8322 43.976 25.213C 43.976 24.6925 43.8562 24.2299 43.6166 23.8251L 50.5665 17.0592C 50.9858 17.2906 51.4651 17.4062 51.9444 17.4062C 53.622 17.4062 55 16.0762 55 14.457C 55 12.8378 53.8617 11.4499 52.1242 11.4499ZM 15.2179 22.3216C 14.9183 22.2637 14.6187 22.2059 14.3192 22.2059C 13.72 22.2059 13.1808 22.3794 12.7015 22.6685L 5.75165 15.9027C 6.05119 15.4401 6.17104 14.9196 6.17103 14.3992C 6.17102 13.8209 5.99129 13.2426 5.69171 12.78L 12.7015 5.49365C 13.1808 5.78279 13.72 5.95627 14.3192 5.95627C 15.7571 5.95627 16.8954 5.03103 17.2549 3.75881L 24.6841 3.75881C 24.8638 4.27926 25.1035 4.74189 25.5229 5.08886L 15.2179 22.3216ZM 27.6198 35.1016C 28.2189 35.1016 28.7582 35.275 29.2375 35.5642L 38.4041 26.6587C 38.2244 26.4274 38.1046 26.196 38.0447 25.9069L 17.2549 25.9069C 17.195 26.1961 17.0752 26.4852 16.8954 26.7165L 26.0022 35.5642C 26.4815 35.275 27.0207 35.1016 27.6198 35.1016ZM 38.1046 24.2299L 17.195 24.2299C 17.0954 23.8936 16.9131 23.6371 16.7169 23.3609C 16.6769 23.3047 16.6364 23.2477 16.5959 23.189L 26.9608 5.84062C 27.1405 5.89845 27.3802 5.89845 27.5599 5.89845C 27.7396 5.89845 27.9793 5.89845 28.159 5.84062L 38.5839 23.3047L 38.5837 23.3049C 38.404 23.594 38.2244 23.883 38.1046 24.2299ZM 42.598 22.6107L 49.488 15.9027C 49.2484 15.4401 49.0686 14.9196 49.1285 14.457C 49.1285 13.8787 49.3083 13.3004 49.6078 12.8378L 42.598 5.55148C 42.1187 5.78279 41.5795 5.95628 41.0403 5.95628C 39.6623 5.95627 38.4641 5.03103 38.1046 3.75881L 30.5555 3.75881C 30.4357 4.27926 30.1362 4.74189 29.7168 5.08886L 40.0817 22.3794C 40.3813 22.2637 40.6808 22.2059 41.0403 22.2059C 41.6394 22.2059 42.1187 22.3794 42.598 22.6107Z"/>
<path id="path11_fill" fill-rule="evenodd" d="M 49.2811 10.8914C 48.8279 10.8914 48.4314 11.0014 48.0349 11.1664L 41.3508 4.12552C 41.5773 3.74048 41.6906 3.30044 41.6906 2.80536C 41.6906 1.26515 40.3878 -1.22658e-05 38.8017 5.25891e-06C 37.4989 -1.65099e-06 36.366 0.825091 36.0261 2.03527L 28.8889 2.03525C 28.549 0.880114 27.4161 -2.14264e-06 26.1133 -9.05255e-06C 24.8105 -2.3126e-05 23.6776 0.825131 23.3377 2.03525L 16.3137 2.03525C 15.9739 0.880125 14.841 1.80843e-06 13.5381 -5.10148e-06C 11.9521 1.24232e-05 10.6492 1.26516 10.6492 2.80537C 10.6492 3.24542 10.7625 3.68545 10.9325 4.07049L 4.13506 11.1664C 3.73857 11.0014 3.34204 10.8914 2.8889 10.8914C 1.30284 10.8914 5.70245e-06 12.1565 4.70487e-06 13.6967C 3.7073e-06 15.237 1.30284 16.5021 2.88889 16.5021C 3.34203 16.5021 3.7952 16.3921 4.19171 16.1721L 10.8758 22.6629C 10.7059 23.048 10.5926 23.433 10.5926 23.9281C 10.5926 25.4683 11.8954 26.7334 13.4815 26.7334C 13.9346 26.7334 14.3878 26.6234 14.7277 26.4584L 23.451 34.9845C 23.281 35.3696 23.1678 35.7546 23.1678 36.1946C 23.1677 37.7348 24.4706 39 26.0566 39C 27.6427 39 28.9455 37.7348 28.9455 36.1946C 28.9455 35.7546 28.8322 35.3695 28.6623 34.9845L 37.3856 26.4584C 37.7821 26.6784 38.2353 26.7884 38.6885 26.7884C 40.2745 26.7884 41.5773 25.5233 41.5773 23.9831C 41.5773 23.488 41.4641 23.0479 41.2375 22.6629L 47.8083 16.2271C 48.2048 16.4471 48.6579 16.5571 49.1111 16.5571C 50.6972 16.5571 52 15.292 52 13.7518C 52 12.2115 50.9237 10.8914 49.2811 10.8914ZM 14.3878 21.2327C 14.1046 21.1777 13.8213 21.1228 13.5381 21.1227C 12.9717 21.1227 12.4619 21.2878 12.0087 21.5628L 5.43792 15.1269C 5.72112 14.6869 5.83441 14.1918 5.83442 13.6968C 5.83441 13.1467 5.66448 12.5966 5.38125 12.1566L 12.0087 5.22568C 12.4619 5.50071 12.9717 5.66574 13.5381 5.66574C 14.8976 5.66573 15.9738 4.78563 16.3137 3.57545L 23.3377 3.57546C 23.5076 4.07054 23.7342 4.51059 24.1307 4.84066L 14.3878 21.2327ZM 26.1133 33.3893C 26.6797 33.3893 27.1896 33.5543 27.6427 33.8294L 36.3094 25.3583C 36.1394 25.1382 36.0262 24.9182 35.9695 24.6431L 16.3137 24.6432C 16.2571 24.9182 16.1438 25.1932 15.9739 25.4132L 24.5839 33.8293C 25.037 33.5543 25.5468 33.3893 26.1133 33.3893ZM 36.0261 23.048L 16.2571 23.0479C 16.1629 22.7281 15.9906 22.4841 15.805 22.2214C 15.7673 22.1679 15.7289 22.1137 15.6906 22.0578L 25.4902 5.5557C 25.6601 5.61073 25.8867 5.61072 26.0566 5.61073C 26.2266 5.61073 26.4531 5.61072 26.6231 5.55571L 36.4793 22.1679C 36.3093 22.4429 36.1394 22.7179 36.0261 23.048ZM 40.2745 21.5077L 46.7887 15.1269C 46.5621 14.6869 46.3921 14.1918 46.4488 13.7518C 46.4488 13.2017 46.6187 12.6516 46.902 12.2116L 40.2745 5.28068C 39.8213 5.50072 39.3116 5.66572 38.8017 5.66575C 37.4989 5.66575 36.366 4.78562 36.0261 3.57548L 28.8889 3.57545C 28.7756 4.07051 28.4924 4.51059 28.0959 4.84062L 37.8954 21.2877C 38.1787 21.1777 38.4619 21.1227 38.8018 21.1227C 39.3682 21.1227 39.8213 21.2877 40.2745 21.5077Z"/>
<path id="path12_fill" fill-rule="evenodd" d="M 41.6994 9.21579C 41.3159 9.2158 40.9804 9.30889 40.6449 9.44852L 34.9891 3.49084C 35.1808 3.16502 35.2767 2.79265 35.2767 2.37375C 35.2767 1.07051 34.1743 1.69183e-06 32.8322 -1.46914e-06C 31.7299 -7.99272e-06 30.7712 0.698165 30.4837 1.72214L 24.4444 1.72215C 24.1569 0.744708 23.1982 1.21171e-05 22.0959 5.59353e-06C 20.9935 -9.30045e-07 20.0349 0.698172 19.7473 1.72215L 13.8039 1.72216C 13.5163 0.744711 12.5577 1.52467e-05 11.4553 8.72313e-06C 10.1133 8.7972e-06 9.01091 1.07051 9.01091 2.37375C 9.01091 2.74611 9.10676 3.11847 9.25055 3.44429L 3.49889 9.44853C 3.1634 9.30889 2.82786 9.21581 2.44445 9.21579C 1.10241 9.21579 -9.68934e-06 10.2863 -6.77841e-06 11.5896C -3.86749e-06 12.8928 1.10241 13.9633 2.44446 13.9633C 2.82786 13.9633 3.21131 13.8703 3.54686 13.684L 9.20264 19.1763C 9.05883 19.5021 8.96295 19.8279 8.96295 20.2468C 8.96295 21.5501 10.0654 22.6206 11.4074 22.6206C 11.7909 22.6206 12.1743 22.5275 12.4619 22.3879L 19.8431 29.6023C 19.6994 29.9281 19.6035 30.2539 19.6035 30.6262C 19.6035 31.9295 20.7059 33 22.0479 33C 23.39 33 24.4924 31.9295 24.4924 30.6262C 24.4924 30.2539 24.3965 29.9281 24.2527 29.6023L 31.634 22.3879C 31.9695 22.5741 32.353 22.6671 32.7364 22.6671C 34.0785 22.6671 35.1808 21.5966 35.1808 20.2934C 35.1808 19.8745 35.085 19.5021 34.8932 19.1763L 40.4531 13.7306C 40.7887 13.9168 41.1721 14.0099 41.5556 14.0099C 42.8976 14.0099 44 12.9394 44 11.6361C 44 10.3329 43.0893 9.21579 41.6994 9.21579ZM 12.1743 17.9661C 11.9347 17.9196 11.695 17.873 11.4553 17.8731C 10.9761 17.873 10.5447 18.0127 10.1612 18.2454L 4.60132 12.7997C 4.84098 12.4273 4.93685 12.0084 4.93685 11.5895C 4.93685 11.1241 4.79305 10.6587 4.55339 10.2863L 10.1612 4.42172C 10.5447 4.65442 10.9761 4.79406 11.4554 4.79405C 12.6057 4.79405 13.5164 4.04934 13.8039 3.02537L 19.7473 3.02539C 19.8911 3.44428 20.0828 3.81664 20.4183 4.09591L 12.1743 17.9661ZM 22.0958 28.2525C 22.5751 28.2525 23.0065 28.3921 23.3899 28.6249L 30.7233 21.457C 30.5795 21.2708 30.4837 21.0846 30.4357 20.8519L 13.8039 20.8519C 13.756 21.0846 13.6601 21.3174 13.5163 21.5036L 20.8017 28.6248C 21.1852 28.3921 21.6166 28.2525 22.0958 28.2525ZM 30.4837 19.5021L 13.756 19.5021C 13.6763 19.2314 13.5305 19.0249 13.3734 18.8026L 13.3715 18.7999C 13.3402 18.7556 13.3084 18.7106 13.2767 18.6643L 21.5686 4.70098C 21.7124 4.74755 21.9041 4.74755 22.0479 4.74754C 22.1917 4.74754 22.3834 4.74753 22.5272 4.70099L 30.8671 18.7574C 30.7233 18.9901 30.5795 19.2229 30.4837 19.5021ZM 34.0784 18.1989L 39.5904 12.7997C 39.3987 12.4274 39.2549 12.0085 39.3028 11.6361C 39.3028 11.1707 39.4466 10.7052 39.6863 10.3329L 34.0784 4.46826C 33.695 4.65442 33.2636 4.79406 32.8322 4.79407C 31.7299 4.79406 30.7712 4.04937 30.4837 3.02538L 24.4444 3.0254C 24.3486 3.44427 24.1089 3.81663 23.7734 4.09589L 32.0654 18.0127C 32.305 17.9196 32.5447 17.8731 32.8323 17.873C 33.3115 17.8731 33.695 18.0127 34.0784 18.1989Z"/>
</defs>
</svg>
